<mxfile host="app.diagrams.net" modified="2024-05-27T07:20:14.270Z" agent="Mozilla/5.0 (Windows NT 10.0; Win64; x64) AppleWebKit/537.36 (KHTML, like Gecko) Chrome/125.0.0.0 Safari/537.36" etag="mheLTD5U5o4NMhjmaix5" version="24.4.8" type="device">
  <diagram name="Page-1" id="KLaAPOKRBHyo8D6UK94b">
    <mxGraphModel dx="1221" dy="725" grid="1" gridSize="10" guides="1" tooltips="1" connect="1" arrows="1" fold="1" page="1" pageScale="1" pageWidth="850" pageHeight="1100" math="0" shadow="0">
      <root>
        <mxCell id="0" />
        <mxCell id="1" parent="0" />
        <mxCell id="u6Jp9F05Q7l3eam3TTiX-1" value="" style="html=1;verticalLabelPosition=bottom;align=center;labelBackgroundColor=#ffffff;verticalAlign=top;strokeWidth=2;strokeColor=#0080F0;shadow=0;dashed=0;shape=mxgraph.ios7.icons.user;" parent="1" vertex="1">
          <mxGeometry x="50" y="180" width="30" height="30" as="geometry" />
        </mxCell>
        <mxCell id="u6Jp9F05Q7l3eam3TTiX-2" value="" style="verticalLabelPosition=bottom;html=1;verticalAlign=top;align=center;strokeColor=none;fillColor=#00BEF2;shape=mxgraph.azure.github_code;pointerEvents=1;" parent="1" vertex="1">
          <mxGeometry x="270" y="170" width="50" height="50" as="geometry" />
        </mxCell>
        <mxCell id="u6Jp9F05Q7l3eam3TTiX-3" value="" style="endArrow=classic;html=1;rounded=0;exitX=0.944;exitY=0.611;exitDx=0;exitDy=0;exitPerimeter=0;" parent="1" source="u6Jp9F05Q7l3eam3TTiX-1" edge="1">
          <mxGeometry width="50" height="50" relative="1" as="geometry">
            <mxPoint x="400" y="400" as="sourcePoint" />
            <mxPoint x="270" y="198" as="targetPoint" />
          </mxGeometry>
        </mxCell>
        <mxCell id="u6Jp9F05Q7l3eam3TTiX-4" value="" style="shape=image;verticalLabelPosition=bottom;labelBackgroundColor=default;verticalAlign=top;aspect=fixed;imageAspect=0;image=data:image/png,iVBORw0KGgoAAAANSUhEUgAAAKYAAAB/CAYAAABlubmQAAAAAXNSR0IArs4c6QAAAARnQU1BAACxjwv8YQUAAAAJcEhZcwAAFiUAABYlAUlSJPAAAFvWSURBVHhe7X0HgF1VnffvzevvTZ/JJJlJ7wVCDRBCFQUBkaYIKFhAV11d1+6uruJ+fqyrq6ura8WudBAUVHqoIaGkESCE9EL69NfL9/v9z71vXkKyBtbwTQb+M+fde88999xTfudfTruBXKlcDpSAmjJdAECAJ6BHgBeBGhR5JReRt07eoDfolZJw5R+Fo72R/OUMg/zvLxOY3nXNgL+FITwrLkIXfj0AU5l/rWlflTVESAAr0RnQvLxWF3OZfsYH7cI730RkbnppM7K5HEJkmboZ8J4u86xErlkmZIOlMkKKYUiT8vda59GV+FAmlaiAWU3Vl+SNCAaDKBdLKJWKCAVDCHz4S/9evvuB+9Hd36cQDFYysW5kEHfAzAXLKATFO4c6vdbgHPrAVO4EnQquSJZjXutIbRKhUAjFQoHALCERjyPQOOO4cm1zM4rGPwlBHhVYkQQITIFS4MwxZrkhT6Zjv5bE0n6tX/ka0wCeBq590nmZ0jjoAVO8MRGPIdA+56xyhuyzzBtl/ZXJMXlUJDXimGUHTAp1uiFegkb/P/JYXVVDj1SiuSBtZ0HJo321f78kAsMJzFIojCzle1lmjrgmYasADph2Zn41BO0b9Aa9UhKECgRl0UOdd9iNdvMjaAONR59eDsYTyJKdkqfSIhK3FHcURu3XnOOW+4D5G/QG/RWqFuV70l6BWn/UW8qBSIwSm7xWHNNA6cS2i8jO7OG9RTA06ZU3wFffZF3ZDmli4Rgwvctq2idYm+ecbVqluoUESGeVD+iT+i3TIJJYdxx0qNM+SuqvkIrm1TypinkdQNOAuSe5vO+dAq1z31Yu0sCRJHe8sSiY8pbTJ61jVEVnRtDrAZivjqzcX03x/A+V83qgfXLMhtmn06oJoyYYZiEVDZimYwZkDOlPnewqOiG0yqx6vdCeqPEK8mXeKh7v3KfqMPsof6PqynHPvDy0+Vg97EH/U8SDhbyy2VPg7guUokDTsWeVpV9KePuGj0bIB0S546OO9lIwQ45c4/PLrLowAzYA4UrBF0P+Uf3Au4f1jnRq3hWih66qfEgS5s7HqVOu1EW+rz1jo3AD9eFUroOHds+zK5t9kRRLhnCF6jKvo5955wb+fJ8h7FgIPthEBrCqEq34y9FfMJb+5Fud1c/7fr7i7z/j33fk7vhgE9mVuuys246B/bs63YPc0weHs7KqcnsL4zvdf4N8MsCICzkDULq2f22cTIjygOI7+6O/TdGSqw5fcQMAM7dHPPoV7ebL2qnmwCKrNN70K2+P20OK3gDmbiQAVYHRROWA032B0D/6ruT5uecHzh2KPOf52TNV9y0+O9KrQtXQc5LKJ/NxjwxpegOYVeRg4MBZzfmqryvg8pxAKWcA88Dmg7Da2Z/C6doLb+cvcwOAZKCKU1edfBXGpVFu6NIbwKwiw4COVuWseuneFQj45wPQUG+F76rDVB8rz+0RRpNjZMy4MM6nmvxn/DjkhHnneNczxIYqvQHMPcgA5DuDC0FROR8g/14ljDlHPqBefp/nFpezrn0//e5OA/cGnKOX+wxNet0B0wQouY05/u1GAlQgSN8aFMk+dQzUhOgdRKnEK3K4YE2wAopAjcK4OMT8zJ/xlgoFN4WrqG438BneZLBCoYhiUeqAiHf0DqWjVEI4GLIph3o+YMB25HPxahq4O3Tpdc4xd69iYgJ5AYdgrCFQigRjIe8mr4YISM2wpifVzRKCfDQSrKELElQ1CPF5HZPxGJoa6tBUX2fzCkMEWYiojYTCiNLFIlE+EzLQCpAhPc+4c5mMAVrXAmuB5xWAvgyJjg8PZQo0HacOdlaCLizDA2PlKo8BkTO0yXFQ5pSgyWazBpB4LEaw5AnOPMIhckqGiUYjBqh8PodsLot0Ou0ARq5YyOWR5TVRBYRCiERjiBCIYqfhSATxRIKlW0aOnDPA8AG+oySuynhDBK1NPBRnJsD1jBqKlhrszjNZI96luOlQrZvXJTDFiQREn/xz/Wqav8AnkBUJvhgBJc6YJ0dT91GZQFHZDGttxdSpkzF27Fg0Nzejsb4BsWgUUYWnKxBwPd096OzswvadO7F+/UasXPUiNm/ZQo5cg2gsbu+SEwjzBGuQ4JQOmuO7dQyFeV1JmTtzNeKfD7268en1yTFdxio0ANIyYrEI8uSY4krSNsvkmHECpKWhHqNGjsCRRxyGo444AqPaR6KuNkEuGEciEaUe6UXL57QMWueS+tQEkM4W0E2Q7uzqwtZt2/Ds8yuwYMFCrF67Bv3pHPJ8k8CqUjeAksuKc/f29zE9MaXC0mYuwFB8iasRaWLubKjR6w6Yql7/t9oeFjgt7yoJimbpjslYFB3D23AMgXj8MbMxffIktDQ20J8GEZ+RCigxXizm9YiR4tSKvxoZSbyvWVsFiWetQKUiStwZWLdu347lzz6HhYuW4qGFi8lVdyFHLpvlTQvPxiCQBoR4S68DpY4VjlnWiPLQqZtqeh0Ck5Xq1auyVV2xynuwnEMtjZZxo0djztFH4+Tj52Dm1CloTFCs5inmafUEKM6LBemhAc+SJmBkeTMGcUzjwPav2DVfS7dcv2VORg3BpsVXAm1Xuoglqzbinvvux9JnlmPNuvXoJHcNUi1QnAVPx1SHvNJnEXsZ0FTEN4B5UJGrPD/t1R3g3j9vM588KRVy/CkiSZGc7u3G4TOn4ozT3oTDD51FDjkZTbUESJ62DB8pZnO0rmv4HMuHQAkSmOVykVyQAQJhAslxSWecuDcacHkmgMmwCVJEBxiuSO4oLqtFgDkmpI8iff3GzXj4sSfwp7vvw3MrV6EYCKLAuCIU5+75IvXXENKZlBlT5dL/DEsHX0celL1fl7bBTEMUmOIssnEdl9LUZx0lqI0IpiDREzJXRC7dj8baJE49YQ4uvfBczJoxw7p3wsx2gGK3plhGRChm7apcwGfsHQQozRfjZkVCl/zWKzdXjk4XVP+n3qnXKl0S9QSx0iQ1oExDp6ZAF7Y4+rIlLFm+Ejfdfifuf3g+uvvTVAGcUSQOquZWLDNRionAVbzuQj/+hSN3ZSnm8+5czk1t3D3sYKNgfNTkq0zM8MIl2y9Yd+37HlzkV4mA6ESs/vyrCCtY9m45y0qncTOaeuR7330p/u59l2PG+NGIEHBBcrSo+hSp54XJJRWlk9YsCyGNZWZOnlZ+dKz9gZJyaRio/qpneC5/NySpMAQKwSpOqhSOGj0S02YciijF+aZNm7Fr164BC53RlAQsha2sKlDc3s29kJ8qVwou1N5DDh4aosBkio1FODjaLzNojlyqTPFdU6Sul8+hgRb1B9/7Xlz6zndgWF0UpXQfQSvjh89R9JasD5MShUBVMaicBjQ9lhTfo6Peo5GhAJ1tGiFHAOvPL0MDHu9Lt3QlzLB8T5EiOk+jJxyO2lHdoK3NCUyaNI3XeSxdttTiUhpqPN1U76nUkg7ux44DZ7v7Dly7JwczDU1gGufSnwOldD7xFnX/BMltBDyBsrWhDpdd9A68550XGgcNEqwNsRq3h5PQQRBHIuJkNQYQRkV9VdXq9FcfnAHpegZG957dSoyeDrw8pcqk8CVey1knO10NncCmYyQcqXBodfJPnjQRqVQfXli5gmHIlwnMrBoLual0VnvpwNuMGLN35migTn3nfAczDU1gWmX5ENGZy5M2bQhJDJJDNdUl8I63vw3vveRiNCYTFN8B1EZp4ki8G1elHkpDhT82ylPDo8S2D0B3dND3x7jNOteRwHeWuYOwS4fSozOmhKC0cz7n96FGIwIaDRw2DmcVUa8lQBOJMKZMnYbevl6sfPFFz6rXsKXF4NWUO3e/A9fuTAEZigcX2k5IfrjBSUMSmNL3tBzZEESSBS3Tx1Y2lQpIhII4562n472XXoyOtiYaOQECk+Gob4ojKb82XMja1wiOuGSQz5i/wtEJZtWuutyEAjuKFN6u3LMMwqPnox9yPU3skGEUJKe2cXehiOksUOWQgZSkYTZx8mTspK65Zt06xBNJ9Pb3k6MqrSJFVH10ZxXfKlDKuRcr1YOXhiQwrU+B+pyMBO3FFA5RdJLrRYIB64c8+YTj8cEPXI4x7cMJAqCYzyJGkS0dsZRXHyW5qlnCFLMCKitSAJXYFVcLqmIZ74Dl7bROAxzBpbKUE4eVDmnn/JWottIU12ZYp4tqxhJFvMVHkIo786h+TkZlwNT76xvrMLJ9NDZs3IR1a9fZ7mg+13TvtoM7mp87DtSljs45o2twA3Nwp+5VksSn6YKsWUKTlahpa3kCooApk8fjHRe+HePGtLOSCDayk0hYRkkZOepuNeEYyqEY70gTdV1AmgInw0Xg8eNXB1GNWBE0xS3nxDCv5FxnEmMnciR689JXRUJSWc8JKAxJrujG3wlagkUACsnoYuxEqHXbBQPUc2W1MY7pk8fh3RddhIljRiNAkS9duKRwDC+ncXz/NQ6KSiuPPk5Jdmr3BzcNUWCyzj0OFI2EkM9lDHy1yRguOP/tOPLwWQYqdZSrYksESJEVLT0yy4dLBKGmatCD4GJlqr+QTsZLQX2Rmp9JwGaJgILCUKQWabRk+EwfuW22XINCMEL/CPLihiEeeS9Ni5u8kkAhaE2PVGIdSsTpjOOKm/Eob6kSAq3CRfgeqRvHHnEYzjvrrWiIRwnWnE2/c8DkYxZhNRkM7TjALw8OGpId7EVWboHgKRKQtTGK6EIWxXQfLrnwPHz2Ex9HfSxi+macYC3kcuRaFJ2seAEuX5IuaTaPAUJALJHLRSnqxVElqjU/U6I2k8taP+M66n3bdnWhN5WxmUECWCgSQV1dEq0tLehoH4nR7e029l5DoEmHlCGmEScBsWRWPQFGf+PxfF9RnNTSwfdQvQhFxcVtJB8vbevEv33jW/j93feiefhIdPf0GUfX+Lq4u9WeAd45z8fyafHzncwx7w1eGpojP6xMTfgVAIKs5BhFYR0t7h/85zcxe9Z0lAkw6ZYSo0QFdVDtQlJCQfKf59lsEfFYEDkepQcGKV4zWQJY+iIRmye4HluwEPOffAKrqO+tXb8BnV09BKq4L0uMuqR0Q02Ba21ttnH3aZMmYs4xs3HMkYcjSvaWS6UQ1xQ5Alyz3cUoTafUH9Oivk1hS3GpwWgOp/o5xcE1IWT+k0vw8X/6EjpTafMTIGt4nwybAdTX6YCt0SkBUlBUnSpSG0UyHjt4aYj2YzLFBIiMHeli6e5OfOSK9+Otp52KMCs1LM4knZCA0NxJiUvrvDZLnM8yTJHg1SzzMIEhUGoUpiZcg2dfWIPv/+Rn+M1Nt2De409i2ao12JXKIUd9NFMM8MiyJLiLgRBSuQJ2dfdhzdr1WLR4KeYTzBs3bMKY0WMwYngLE6p5mAVya6FJxJJnUZtTmYub8qjZSuLoJYFTBhQTOWLECGzr6sIDDz2ExqZGezqrhkHQuY58PW/eduqTO9dPlecgpCEKTHJK5kldQ6DF3T6sFV/7yr+gtS5qHzmQha4lD6pkDe0VWaE15Eoi1WmQHLZIER/XDB9yviIBIRDd/Ps78O/f/g7uf/RxgjGLeGsbQnWNSFGnLFOfLEvXFLeiC1CvDFDvlDTSs7FEkvZLEQsWLMAjDz+KpqZhmDhpPKIhpZPxs4gdIElMm1nOTJ9EuUaD1GtQINClU9paIt5rJDgfnj8fKc2aZ8JzlBLqRbAaVBx+vVmkPg3U9GCmgx6Yu5W5R9adQ06UiFIvTPXh8kvfhRPnHEMQkBNS74xqmYTAIKuYQJVoDIZDFN1pAqGMbDpl4lvcSmJS+uoPf/4rfOsHP8ZOArIYiSFHwPUTMBmCRSAoSYayHMV11bWUK+QpjtkIJEb5PolmW7IRiaKrpwdLlz1joJ08ZQpVCWm8HmRMzyTOpIcqM4wjTN0xl80b51QYiekw8xZvbMCGzZvx1NNPM/1sCOTUTs8cKJeX16dPg7dORYMbmAOlu1fyb/tHn6Q/akxcIGxurMf7LrsU08a3G2cMUefyu2HIdBwQeC5DRKCUeaHpbOJUOeqcqXIQ11x3E3587U3o4nUhUUs/xk9jRPqk5gnF+D6z05VO6rSy8tV/GaLoFwfO0XoOqDHQMWLUUH3opo65YvUaA+rUadMtvLhzTNPqyrTesxknthUlwW3dVbxWF5j6aKloUD8NoKuvD08vWYIU1Q31EKhjSnqwyOwFc8yX0iw/m/hhNwc1eakcnKSy26/y8wN6Tl0xsoxlSEydOhXtHR3U/YgJzdCRtc5AZuFSdlac+bEq+ZyYX54VqW6eJxctxb3zHkaPVjESrGmCOxyL29i5LGvprEG+T1PkggRUDUEZJS7UA1qiGpHXEKcMEV9c8y8kscz0bN25C3fefQ8WL3+O72ZleNxOVr8mjuxJZhjphI1JV8rupPHjMXL4cOSZLn+ZsBa4yZiz4rAHHLNxDx8cNKiB+WrJZviQa+TyRUyYNAlNLcOQzrpOd+l/JYGTrlQTrjhdy2DJa/2DrF8et+/qxp133W2WtzibPtKVTCaQJpdKUP8UKAvibIqX3Lmco6gmxyRKbJKIJobEmI6orPlinjoigco4hFCNAkn8rlj5Iv70l7uxZXsnGxSQzmTdaJN6CqSSVJEBzdAl0MlyL2EMG90h02eYzqxhTatQ+ptJfxDTkASm624pIVlXi/ETJyFeS6BS7GVZX+ryKZETlkIE324uhmI4Tt0xgkw5jO50AX+5/0E8uvAp9FNMar5kIpFADy1hTTJW53YNwRan/C5l+lEXCaIpHkFTLILh9bVo1UI1cVN13NMJoOoe0vp0cVtqAUyLM1geogHz+JNPIUPjSJ374urSU+UcvBRYZ47zWX8knabkNbChzJk9GyPa2lCmXq016lpKbMOd9nQlBofsg4QGtY5Zeetfe/0e97XBgCommUzi8CMOw9ixkxCJBJAh2DS5Q5JOojovkU2X8x391DmfoufqDZtx7U2/x5r1m42bpiW6qSNKXNbXJZHu7UGU701QJ5w5eRIueecFeOf55+Kcs87EWaefjrnHHouOEcORInfduX27zVDSlDZ1TQmU4opabKa09zNMkcbSjOnT0NbaYkOc1n9qIHVw9P69rLr6YS7JVIOIxJJY/twKrN24yeI10FuNDtSjYGpn4qw8s8tBTIO6g93pR0zDPl7v3X7Zfan+Wp8jrnLYrENw3Oyj0drcaMaQ9D3TwUSsJD9vqkxpcHkCJEyx/eyzK/A4uaVGcyRWMwRmjFywu7sTjeTExVQ/GsgdL3jb2XjHOeegtbURjfV1NgupP52hvhixTvE169fjj3++C7ffcSe6+9LGIWO1tXxt0OZVKq2a1aQBgA+97z1438UXktOWUBePmQ5bIBdUHbhOcZ5ZOpl+HmvI3dNsRH1sVd//+a/wyxtutSFVjZ5L3VTW/Hr0J07blV+wg5iGJDBlgYbJ+dTlo50xtJqxQFBqlMVGPqSDqaLtOZdTWb6KRx3uRVogNhRJpVQGiYyhKIGSzWs0nGYT9cgk43zX28/Bxz54JZqScdg8EMbkuodq+DxoKavDuwY7e3rx/R/9lEbUQ3aeaGzCru4esU1Lk8R8trcLsw+bgau//M8Y3z4M9bEocpm0ZwQxZqZXDc1yzfcr6SGqHv3pPLKE93W33Ulw/ho7e/tRZHw2V8Cy6EpJwHR1ScR6asFgpiGpY4oKBJ/NFqIlLZMgGIk5/Y3cL0jRF4wlUBNNIECno/NLUpzTCApGEIjErUtI+h7lKo2SjAFd3UqaaHzItGn4uys+gHoCtkyDpkwLHIUMjZ+CrReiFota6p0JPtMxrBEf/eAHaKiMJB5KbssZctQYdVYxhBzZdZjxbN6yFc89/7xxbI02aTzeJ9dIrQkpORLiJhXCBKFc27BWxKJsVJpTSkQ6HXOAXOPVT7Xv4KWhafx4R1WCKsQ6wKVb0tEUIfjK9iU4p1u6c7smp1QYdSVZ7x/P3dJfkQOFJvM21NXh5BPnop7ACjKupMa8zeBQP6gkjsBbsNnytmSD7+loa8EpJ56A2njcOLb6LbX3UYgANb2PCe3u6cHWbdJHC+ZnE0uqgDQAK/frb1ej9lJP9ULAVDptep5x1+pnSJWTwU9DlmOKVDUOTu7owBkww0frtc3xnmxf53QuZcaql3+ONHau0SFVtjhXHUX38ccciwStH3WIB+lnXMwqniJUwCQ4tL5IA4SatKG+zWOPmk1dtxm5bJZqQtlAqdnr0iw0NNrfn8b2HTuhESOR+1WkPqKqz3nXTgVEmKEn/VZ9oLvzyoOThjQwRapcB84B51DErOtIoA44hmUtD/xJT7MnHOgINFnMGkNXp7YGjDTaU6YSKt3SQ6Y96b/VupYYrpiDPSMU6Xvcmv9p8y3pbFY806OJJAKti4WimqC1RFU7clbfkFFj0bvUNeaWfih6plm1qvzo2nNGlZPBT0ObY1bqkxUo51WuW6XoWeK+8/6cMlcywPg3bZ6kHjVgakIFRabEMb0EOIXRSJMmmumdisH9insStNT7yFhtPY/mf0Y0AsWXS6QrXhvb90jxKI1uRrs7r7iBDNmvn+YatQ79M35xd/dulwqfLFsHEQ1pYIr8KvLrxR2rfeXImXwQ8spVvbiVHKte93gUZ9MyDU3G2Lhxg4FKfm7OpNQA/wnnRHpWozyiDRs22NzPXlrmtlSXRk7Bpr1RMyW31LKKRCxOEKkxSGcl0PzIqkDpO0syzzR4IENPFzaRmTcqj9EdjDSogbnfhVpdC/bQnh7mWalb8Rv3x3OPG8qpMGzCA534q8jnSiZyyf207eC27dux7JnlNoQYUj8RSXsLKZzPNUUGHDrjpjwuXryY1n3a0uBmDNHSJyhNJFMvFSeWESNeWW1V29G/EOkFdDZxmaeKu6+/n+DM8e308DLkp+Nl5LI2qGlQA1NlvM/CrSIFqXaa3VMOaIMCzfomKCRvS3kb0w6QM2kmUISADBNoIV5HeYzRL8QwpWzaTTD24rItr5kI9fXWBGPIFwLo6c9gIUG2cecupFmC2RDhEK4xjiexrClwtKnJyaLkokFkyEq3dnZj/tNPo4sACoS0DskNAAjXhULaxtKHtbZgeOswRDRkqs5TAZvpLFGZLTEv9pErkSGeKkCN5mgyzcUyUqm0dejLoFIXV4VzMxM+DpWfgavBTYMbmH+FfPDs6TS/MRKVHldEX0+3WciakKvx7SABEMjRwMhXO4LE86vVHM7+PptMrEpMpVMsJW0fSJFNkKpTXFsEPvP885j/5JPIE1jZmjLS1CO1IlL8Vv2Q5YB2zCjbpqxFAvYvDzyItZtfIkhpqJBbatxdoBJ31nQ7KQJ19GsfMZLv1upJcmPmw7i1LgyUCucDizlluuzDBfTq7etHWtY+71jIvXJMXxL4cQxeOqiBuS+y/X+yeUQJpKa6egxvaUItWVNDJISOlkaMbKiziRYjGuoxorEBbfX1GNbAY2Mj4uR8I4Y1o6k+aeuF6ii6NbFY27UIpH0pcryaIDZu2Yprb7oV8x5dgBQ5YjkcRzlER66aKQfRT46XpY5YoP73yBOL8bubbsaWHbtsLqW6inLZHJKyzglmtZk8RfzYMaMwccJ4NiqCn1zb1gL5YNoLlmwmO7mvGo3Ui0wm4/wZvzVSPuM31oONhuRiNHVya4SGNYtL3/UuXHbpxWhva0CZ0l17qUfJsfwcedXujvQMRQPY1d2Phx+bjx/97BdYvX4jtMhLHe+2PohgUAe6tsBWJ/oUAuktp52KE+YegzEd7YiTW6b7qQ7wmc1bt+OPf/oz7rznXrxEsW8ws05zppDgScTENfuZzhSmjx+Hz3z8H3Di0UeB/Nb6PwXQAtUQXxyrm0jDrb5EzyqP0Ti2dPXiG9/7IW6/+37kyUE1GUVqpp7SeLtO/S4mOXFhOx3ENESByUolAOLhEL74uc/inDOPR4nMpD7Gm8yoKtcnzdHUpZzOVQ7qdBc4f/Hb6/Db629iZQdQ0FpxcSKK5SI5ciIeZWWTK5KLaqb55InjMap9BDpGthP4Uaxdtx7PrliBHZ1dNts8T4CoQ1/vqeGL9FmVfCaLGMV4LFTA5ZdcjCsuuwwN0YjNWpIQ15p3jYiKhCuByzle81hgWkqUBAuXPI+vfuPbWLLiRdQQ7BrRUiDVYTUwK3WpCAY5Dc3FaExvibpchmJ3xrQpOPKQmYhRXGrDgKCGCgk/jXer8mX9+ixJXYBlcln1N+qDULFYFCtfXIkNGzYaILXmRvqcDCLNlbTZQaGwjSjtoHGzas16LFqyHE8uWWactjudQZapIaO2YVDpqLY5l8x5it+4JgMXsjhy1nS847xzMWbkCNiSYzpbBySu7PVL6lf5cmaZGhGteaomPZkC/vCXu3D/w48ilXOi3SZ8WGg1UkcDPnQ6DHIakjqmDAJN7BXjWP7scnR19pCLsTLVPaOtYko5ApPGTpnGEOV7jfkVDKiyowv9veRaJcycMhEXnHM2Joxut6lpspzFJTXObWPotIoZk036KNZQAIeSQKwOAbpSJE7DKEzDKEhwMqxmKRHUBhBZ1dIPSyV0tA3DuWeegUPYgKRrMmre4ruUHnrIcq/Gkc829H6J7B1d3Vjw5NPoofGj7wopapFB0D/3jgcTsUE6bGqMtZKrg5zEAHPMj5ZDLHvmGby4epUYIjmWRLJkuS7oo3O6mhqCTWu7BQZWuDZtVddSPcX1aSfNxfnnnIUk9T3rYqIr0YLXKkzrHvKMGYMPzzXOLetYR+2T7nZk431TjzRaVEYyFrGlGA3xmAH/TSeeiFpa+hrAEYe0MW+GV9+pOu9NP1Qr88SxuCJhbarH0uXP4YVVa5zuam5PXsN8MpyicH2bLo7BTjUFFrAoxtZmK/WGAEnMqh4lfl/atg1PLV6MnlTGVinKz4BilaUOcYJT1gSdOrkNHAQEjXMzboY3NRh43v+eS2xLGU2iUz+nbWhFLiqnBi1wyqmhGxgZj6xqbaogrqftYfRcPpOy7qi25ka8790X493vfCda6+v5ejYQpUuNxdKmDLAh8XmJf9urU2AkzmSFi7Wm+OonFy/Fpi1bbGKygKoNFNxwqkXjQZAX3u/BAEpRsGHCzKu0Mk/78HhlwaNLvsvCwNnBQjYkRxDIKClTTO/YugWnv/k0Nr6wjVNbN4wkhbiLwqgemUWNuKirxbYLNM5CP4JZozFTp05DQ109thHoa1atMrAl9HEoNgKJZX1DUuqg20awSM6qb0hqSpoMMZYnddciDSW5WVOm4NMf+xhF+JloSIQN7KblW1GL+xpftLzwkmnSLeqUpp4EkC2UEIwG8cL6zfjOf/8QvWm+Uxt3Me22C4ei4oMV3qiMqGIrPp7/IKZgYszUqzRbWyMGlnZLtEu4S/zA2UFD1ro0rEeDh8Bav3YNJo4fh1mzDjEOpvyYiBQwGc5Epv4IVu2NKRGsJRYWhqFTNGL0wdJZs2ZiyqRJNp69c8d2dO3cZZxT0+AyBFwm3UcQAnWJGK1tnlBXFOikFnRu34oRrc248vLL8PEPfRCzD5uFCAGToEWmNfD2IqGQR3Fy/Yn7SlXIZnNMI0W8NmWgohqKhcyg+tlvr8ef7rkXTcPabLZ8jmmPqrF4aoPqUdzfIlU+vaNfv4OZAiNPuaDcl6bOxALQLBopMwd7d5GbgiZgaEchcizmqY7c8ne/uAYTx4wyy1xgCYmT8b76PI1LyWgKaEcOciACS6UhnSwYCdsmXelcDrF4HH20frUeaN5Dj2LR4iVYvWYNsgIXnxGXVneUgCpu2tBQj9F85/Fz52Duccdh1syZaE5ErE9V8zSLWemqTALLvshrDT9q6FElXkMwSvUNlMTVaXAJpBo5igWxcOnzuOzDH0W0rgHbdnZZX2uARliBDUojRpoLauBkWVguCXLjyzyaAWe5G7wUaD3+nLKWjVLjNmAqMwc7MB05wGlmub7Rk+7pwjvOPQf/58v/ZLtnSMw6EarKM1PCKr9IENh4M5+VAWITLAwlrkS044WeitKASWXL2LR5C7ZQvK/dvBHbdu1Appdck2XZRL1Rk4KHt7WhdVgLRowcgdo4mwj1Jn3wL8TkFbXtC2MNU+0QKAsCJpEokIpHCJhhNhYBs5Bn+hhvmYnfuqsPV3/r27j29j+ioW0EuntTiMSTBGYY2UzGjDLLF/OgVCvdPjCtm+lgAOawuW8va3mBOKZZqUr+QQ5MiXBxK1vGKw/qdwnqlrKov/utb2LO0TOZR7ZF5pt2NMOxAplnMb18OURgUpdTWagCGZe4kBaYabmtumRUuQUtwxBHk7WkMHQZhi9Q+kQIpjjBre4fSwuTkMtrepsbZtTQuL5drjFxW2ymRsCweboiE1YNzAg5eJnim1nQhE4D75/unYevXP119DFMrziu1jMxp1oaYrOVGFTdX67BHZzArJEuJXL7MQ7uxO4vmfGjimAlSfSVyEn68kX0EVg333EnXupMWwVrmkbe9DuG5VGd7ZovmWdYaAc3AkO2jfallPGhr6VpkwHttBEuFxClphcq8Fyd8iy/OsbTkoijnpxRi9K0SI1o5ouoUvC+rPx4JMT4BPIsQjRg8iggT6TmiUSbyc7GEiVKgznqiyXyUx7LPMoI05KQ9Vs6cfe8R9DVn2HD0DBpzGa6K/0aJrUEE3gi1zXEjPIocszGMZ3BTsHE6KlXqVnLmnMJtvZFZ4zA+3VnBwtphrqAaZtQsVLEbMqsWB237diBGMEzbtwEWtJUX+wBVibBJfCpstWP6M8k961zgVQ+Aq/Er3FaxihnexaxMciI0YiSRKjCaHMvC8ujzk2H96USBVSRfwVyyBwTIY6s/S+1cC1SQ3mdZrxUOmrKioEcmW57bxY3/fEO3HbnXwhocsgSYcabSpnS5nbg0LWeEOlCd5zTr3FTusFONVLy7XMeQ4RbilQXVg1VeXKnAezq7MKNN9+Cxx5fgAwZTA3Fo7aSriHnEZAFY3X3yDlIC0h6WFyYkGLktpKS4lr7GxUCYTq/w0dVvrvzm7lzCiMO5o5yNWoIFMFl6pvSPbXFi3Y8lrElY6pESS/gppmE+x5+GDf/8Y/k/too1qVnqFIw2j7J+jHNWpNuQ09XjK5o/QI+mMhxEC/NyhtR6XJBnkhgpWkxb1y3DqM72tE+op2Sj2IzGrEd0wgFG6t2j0sk8ll7mKXCo3M6Z0jfif0pdvq79/LXULOHcxG553WkU1PQx6+kd6qfXxqixtT1IQKpIilWTp5s8IH5C/C9n16DDVrey/B6r8i9b+hRMDxywlU2xqr8qQJVfgc5ML1MWH78a5cD8iipLfTv6tyFFc8/j0mTJmPs2JHkpL3W+W4TPMTUhBKGF2kdjQGSsbiScdzOB6Y1agHL8Kz7+nXHlzmmRcD0r9UdFCJTVue5jB0zqnRPn3+mnC6FA5i34An8x/f/Gys3bkCWz+Z5X8OSbhxd8Qw9CtaOnU4dk8o4lebK+hev+F2WB84OFnJ5YC48oLg1Ny5vgpd2W9Ow4c6dO7F40WKMGTMBk6eMRZRiXbOLpKcpywZLi0xAdMC0GwSl/HVtfjyvTC+Ts/e+3BnxxIHcUZAXgQKt+RzfS+NKXUIZ1kVNjDoxFdP7H12Ir33jP7B602aa8jTCIhGbQa+vY0hDrsQ7xCgY7Zh0lUAZYqG4TFaK27seODtYyFJLoKjyTbzSWac7SRsLCJTqjYiwgrfTGHp84RNobRuFltbhiNHwsU8uiyMqJnFDsVCeVziiVxw66I51PVkXDJ0BVO/yy9GVZYV0UeUhka8vowW1vQtvFNQqaK1v7uyjPvlnXP3tb2NrV4/NJArHk9i5qxPRWNyQrffuFvcQInLMaVdVOhDEMXXwCtNleuDsYCFLrWWI56pocTcCQFD1Qar+QzVGbdjf25/CQ48+auGlc6qDPagvpBEwzkhhHF584lESoWaF27UJdXPV5ebepod8P6VDV87XyBqNeguoS5JjlsLSKYHFz63Atbfcil9eex129faxlsgbQxE+V4Nksg75rD48JcPJxT0UyTim7e/tyo1OmR0oYN/3YKIBzsac8NyAYJdePngQPDRHQHm3PSXpvWTJMjz33Au2g1osWY9YvJYAJvQEagMiuZvi1IwfPm8jLOr+UR8l4zTdlPFQM7TwOpOxZe/XD++rnF16BEo+SvBn6NGXL2A9DZu7583DNb/+De6a9yD6aKnbJwQZsTUDJlK7BocYiXFLvWyI0pBcWmHAVO0z2TpoOpjLnUg3vTDyNa5Dx2tVdk2hjPpkAlMnT8TJc+fguKOPwNhRI9FQG7PxdY2mqCPbRliIDG31IlFvEy+IHX9+q15T6YLzdFT1OWpUXjPgBeocVaidvSmsWLcZT1HXXfDEE1ixapUtx1CXlPZ6z5GTeil1fwSlZYfxqDF5F0OOXhfA9LmU3J5Z8QGqm1blpRAiWkKRz6AxGce0ieNw1GEzcfih0zFp7Ci0Dx+G2njUOJe6mWxnNT6cJ2DVADRlzsCpl4oIXusElz/BmKfVrV0z1NG/YuULFNsv4JFFy7Bu/QZ09/RaPaj01V1ka9r5Dh+Mfr68mO19/muGGg1JYApkEru+Nrc7MJ2fT+7Szx+fCmgCB8WlZvgUc7bPekMyhuaGJA6dPhXTp0zGuDGjMXz4cIzqGIXGpjqC0z0tPJp43f0VyNJyUcf+S1u3YgvF9fqNG7Fk2VK8QGBu2dWNfha++i410KE1RJoYnCWn1LUzSl0tKGJxeJ8cKP20Dy0assB0PMZV4gAw7YadDdBA3qTH6SOn2o0tm+qzrQPlMn29CFPOa82P9resq6vDsGHDMHrUaAxra0NdQwOa6FdLDpvUnpnUWbOZHMHYie6uLh67zfrXTPONmzajq7eXaaK+Ks4sQLL8pe9qOYbWxEejMUQjMbdOnMlTXbg0O+7sWpMypVwOpH8o0RAHpiN/4q3jMKrUvZO2Vgkn6rBj+3b7RJ6mqRUyKZZHEbFwSCOEDKSZPvogqkRy0cSygDSssR7JaJhhtO6nhEw6a/sJaSdiTQrRBN5IPIZUJmspqK2vRyaXs0nIkXiC9hPLXe8PRwjILHXLHGpra02HFRBd+glMOzftEsFykJcHWd3sJ/1/Bea+ISLy7rpEeLR7Ona7Yhj/2ueQBk6e2BYrA5F45F17YUXKaz9FaGNjk60X13d5EjF9T5KlQydjRlxOa4ok9m3EjGcFcrliNuMmcFCX1PQ26ZM1LFeF11GcUN8J0senFCatpSy0+NWnWtRYvXQAJlzrhjTtTmt8CrT+Nf3OgVK3HcesTCQuUfWQxbUbDeRTYfZGL6/T6md417u0g95rvu4Je8oP7kXhLn1Pkbvh3X5VdOCByfQao3FXFfLBs7dzR/LxnSeyeOofxbk00qzuG1WqtvGzrZ+p6OmT45rb6DqgXYQqbHPetSLRny4tOqsN3rWKVhhXAi7/jlzanK/+B+6SixYFRoJJS4P54nCEANYUOQItHCQYPUtF78yX8ygpcSH9U6RrPptHbmttOjv67+S7pFtWksL6sUeY0YECc8Qb9mQluAXcjai50leL2wRy3XfPWL8o617j9tJzbSNZdY2xMckV2Witq8qLWfNG7VSNiv/FkteDYN4DJa1geybzr9Geze1vTy6dRv7RyMuTSAk3EHlH51gAVf6uW8cjnrg+ybJt/5enuJN40wpIN3FXhcKHfLLTgaJy5en98T3uvf77/ArynHuCUbCoDLRen6L5ihSOvmwQIQJQozia4ymnBXHlkOYoMZ0MadjUO8kxbURK6bB3OOfuDpxXrhlG5MIrjY5T2rX8q517zM73RS6sC1j9Ljk1cjVuSQcZXvqAAQvW1BbXzeWkgEgL97zIbJjXXQwcjBTtq6DXXpR7eRkgd2UFuidVRJfLn58Wu1Y3iolNckieu0VmLFheWwv2wjryQOBdiQbe59/wPXR0uTfnxeXeLXLh5ONzLt0pF2psQnExUEBOmylEFEKclFycuiBTSqc/hlX5evqiNQRWsGJzzr3THelRRX6aLUV2vkeACnkBjXi+ZzBGbPlhJPbn3Vec4oZuMgnLVODU4jYCNZPPMQcBxJg2t8qUZUpGoIXStgSFYHVdZxaTxWXResc98/LXyDX9A0oqJN/tTrtzq7045tO4mB2dn2VYToBhwRU8bhmi6IzEKJ74gECryRGOA7pnRDpUXKWgvDSQnRl3ZlzqBmfxV9zu12q0AqRApfAGIdtWRkt05SQkNfHYnxBiSbU/Hfk+eojr6Z0S8eQM9HfcWDE6x19Le5XTn50bfCohX+6qrxgnn6l2Sm8Nebjy44/vm5RgaGvkBJj0XIFNWyUWNemF4FT/rsqcP+SabGohB0ZrfMpk5Z3/e3oNgClSZnYnV9BeVlTBvK4AcjfnwOWAo2eq/qzWtXohb0sVTMchim140A/vvZqnJkqrnfz4X3m3CytORjBqHZBcBYwOgFapVol0Sreet3NvRIj3ohTh+pSKJnbYV3d59Pcg0p8DF52XCB+UOoo7KXYXs34H/hyoJMJ9sDHA3txupHhc/ANObyAomS4/T/4btd2i69hnvil9bI09OXqgQJUpk7Ey1ipMkXRoqTDaHbnytbm/ESmVB5wc8Dzn+VWXqwGFKaH9MOB47YcRVZ/rxDYmYGzaUlBfwdVaHG3dog+KSnnXm6zI9RxdBZBEurkqPxOdchbeO9L51TaQakcuHS6se4/4DyEnhk0nDqN1PknqaPXUO7XJnNaQW7qYbuPJfLTA5+Vk8PjOvc+lWcGdc/56n/FrhTOncHyvOe+ZPZ/jtcWt53ynawLK5pIayF1hK3yRDSvHBmZ7y7Ox1RRyaE5EMUafJIxHrMtMu4UU6C9pJU4pndNxzL2QKr2Sov2nA77bmw9Gn9sNROXOXWH6hewVJDNvFp+K0fdnYHd0z6hLxsQIASBgtjTW2zceqYUjnxPH04ed/PjpFCcB6VeiI0sR0+jSJn+916XD7uzhPNrjnlWodEYZXuUC8tkU2poaMfeYY3HCscdRNwtix7YdJgVlL1gemGZ1BKlhqFLlVyH/2qIfeI85/vu1o26jSv70TOXce07nPHXPDbhK3B4HFRe2OHlPU/6UHn02pj4Rx9zZR+Gz//AxXHz+eWior8PaTRuQyqQZvuw+bkBOKYkl0V+ZG0BS9PYKHa0uq33+Oh14YNJJR7QWxZco8baKkf7WUPXHCi0w8drwqiTA6ZqgDNGiTWdSCMe0dTTQn04jHI2Y+JAupE/VaVRmwtgx+OLnP4dL3/lOBNnSV61aj4y2VmPzzku8M760PmgfYiUIPEoU02MrC5k2iSJNfyvaRZBvdgAy65ThVPiuwjxDy/IjMedmJSk/BUq3YlBqhES5PhEdx5c/93mce8abyMmBZYuX2mf4bBkL06UuLS1EU/yyhKXPqVCk3yl9Ev02255OX1CTSFXlq/NeXM0WrzGsdfconSpLV8T2vJWrl08516+qvJC3y4/i2nRbBnK74/Gary6yDsJhWt9M2/TJ4/HVL34eh08bh+EE5SEzZ6AcjeKJp54y6zyr7cAZZygUsonLGiAw0ivdwcgdq33+OqnJHGBSxvUaHZkwOh3lpctoImaFoT9tfaI9eax/j8ccW21tfS1BlUIml0FdQ51VUsb7SFOqrx/JeAJnnX4G3nriUThkUgfOO+ttmDxpogMZA0lJZ9lZYdczLo2kFFigasUR9c+xgiW6aDgzLXE+o0aqApZyr72OIrakVwaVAKRKUFyKV43MtpUmaIp8RPuxq4ERXlRRi0gwbC3zIlEu0S6/iDbmihDQTJO4ZohxifPr89H6dHSY9wXuXC6NLBuTjk1NDQRU3hppJEZxKh2Pz5oqwky6o3M+ONWRr3QKjNrSUIMF0ne156caYpEPaaJIJBI3gKb7M2ycJcuvOvVT/X04ZvaRqIuHqZIAdXT1sSAOPXQmxo0bi96+HotHDVWNJUbr3ZGXACOdVC5eEb0GwFTSmFhWqrVgI2vP9vaenm4WtNZHa3QkQ+ClmNksxXGKIFA2WZjRMOKa0cMKFOfQltMCiAo5QWBu27oN3X1s7WSOXTt32vYsrnycKqAPf2rZRLa/H0Uq8PrksgyVAt+nL1woHeI46hJJsYIk2jVZWCM6mVTauqK0R1GGz2sFo5xGhor5rPmrEMWF9DlA8jDLofVPEghajkvblUyb/hK9DCEDIs9Gp3SVmGh1sjckk7YbXIFg1C4hSmOMadbeSz3du1Cb5HU0hP7eHpaDhkLJrbwyVawmRuX0bvqlmFZ9eVgCQh/w19aKJb4zn+4jSLXxl0u3rG5pIdp2W6JZ+yRphKqBqpHSF1MjylM1ImPQXkxdnTvR2bmL9aEpeVlEGTchbs8NEF9qpPT47pWR0nZASQWnCrNKM1eVTLa0umQCJe0nyYpOsBIaCEIN9Nk+5KzYPP31BYkSC6uQzZj4lihXh65aa38qhXvvvx+33nY7HluwCDfecgvWb9hggNM6a3VxaKgwTtETIsDqWZAlfSq6WEJU4pHJsE32+T5xxPraWuuvKxOUWieu7bKT4qyMr4UcV0dt9tpUl6AOFuU1RRid4hH2VKCSCGaFi6uRucmVw4xTXJWVqwrXZ6ujdCGtJWe6wgRVlM/qy70l6nAlckd9TaNMQGiDrmx/rw17JtlA1TUlvq7qF8AM83qvrpUGuhgbrrbHUXzadFZKR4zpifNZMj5QeeG9gu3rpJ2WtYms9BctN6FcR2dPD+Y98jA2bn7JOKIow3Jbs2Y1Nm/eaI1DUkNqjJwjPxV7ku77YfaPDriOqZicVeiJGnuTe4c4iYbAtBmAQKgCjDJsLfXIJEEaZ+HqyxPqrnDbAwoytIApctSxHpXuyed7qWc+u/wZPPX0U1i8ZLHN1glG48aNBGZ14RRZ2QKZtgcsk0tEGbe+GpGIJ9nytZsa06VwvKcZ6va9c6aPRY8E05MgOGWlNtTGjftkCBT7njgrW4aYRLh1SFOJlFBTHs46+0w0tzRi8Qsr8fCTTyBNkGgrGTWAKPMS5ivDrHQ1EnFygamJBlzSe58mLKtrSkspolruwTy7LhqWAtPnFSXTqD8dWaG8Vn61uVeIR/VW1PC92gGkluJWZaAyl3gPMJ+2SYNl3fgu5ROPZLNhhu/t7UYvJVCjpNLmzXj48QX4BRt+lo1WjU96uLa+Eae1eaO+jsla8nHkrvzf/cfRAR/5UUzqEnFRsKKtIFThGq1lwVG8SGR1DB+OKdQNR7W3o4UWbUN9vSnX6zdsxBZatOs2vYQX126wzQkQlI6kBXRSutO0yBtw6IxpLPACrd8tWL1uE42oGJobGzF+9Ci0tTZj4fxH0clCrtdmV62tmD5zJkaOGoUMgXTLbX/Azq4u6kxUEZgyiey62gSGtTTbhv+TJ03geROa+B6tSd9K1WHN2rU0sla7r+UyP6lQxJZIRMkRk2xpw8hRv/+972LqpHG47o4/2/LbbqoJbFIECkGkLQOpP8SovzYkkhgzdhRGj+rAiBFtBHMTy6uMHja4TS9txjPPPY/NL21FT3+a7+KzfFeaYA3wWclt45pWxKwtK1/XW9HS1ISxozvoRmMcDURt8qV9mLbs2Mp0b8fmDS9h1cq16O7uRzCmrbm15oiSKCKpRBWKYuC46dMwi8+We3rRRdE9f80qvLB6LRt0LQoUf5qRJX3VGVG+AHY4cuxI54K833T2jw44MCXC82y9KjhxJAEzSCdQ0qRg5mtw+qmn0J2KKRMnoonWn8S1uJAsdFWAtklcu3EzHnhkPu554EFs3rbNpp1JwZeB0NExAj+/5ifUS9N48IF78Ytf/Bb9/QXbcP9d77gQTbVJXP1//hULH3sMl777Uhx//PEYy3fFyJE27+jE3//jJ7Fu40bTm7Qjhrqd5s45DifMnWONZURbi+mSUXIRWe/S73p6+7Di+RW4f94DeITx7siUmM8wuV+OKkkAzfUJfPd738GUCWNx3V/+gq9/97/QRQDEwnGKb6KrP4cRtY2YMXUK3nLaaZh12KFoG95K8cj3EBFSgaTrCfTr2Di19OK+Bx7Ccr5TG7QKEFmi1PUOkLszvNNrNfpUxIxpU3HyiSfgTSefhGEEpPb3pBZjJMu8L9WL7S/twPPPvYgHH5qPx55ahE6qVDXJOLLMa446/qEzpuKrn/4URlL/jZEzFviSG+fdi29993uora1nHaiRaCkx65TMgq8n6UeokfOBqV+Bcv9x9Br0Y7JFl6TLsUWxQKTXhFl4CWa+ma30k3/3EVx24UU4ZPJ4ciTqmxRxW3s6sXHnVtTQAq2jX21dFCM6WjF58nSM7hiJLRvWo79rF/VSGiME4/CWBrz/8osJqDhWrnzOujPSBM/xR83E6XOPQntzAg/cczfOP+/tOO/cczB1yjjU14XRx9a4et0G/Okvf6I+10fdsxuHHTIVH/vIlTjjLafi6MNnYGRrLdMeRG9nDzp37DI9bPiwOtTVJTF2zBhMnzEDMep9q9a8SNuAhhNBUSRnSdKaPfetb8Uocr9nnl+NefOfRCgfQFJNkgZIA9WQM958Oq688nLMmTsLrcMbkKjV5/3KWE+9rj+tScIBtLWQcw9rxrTJkzFpwhikKF7Xr15JEDDxkZhtcZ3XZwZZ78Filmjux+knzcGnPnol3nLCcRjf0Wz7x4dp4aixq1eqho2nmQDUh7lmTp2MIw6bwZrKUwqsRF9vF0IEYJLSaFh9Ay4551xMGN6M4XV1SNbW4VlKiUceeYwgj7PRSMck02GdSRVyeq+OjrE5GkCT/vaXpLMfUFJiqB2ZJUiFBw0ET5GFV6C4/MI//TPeesopvGvliUeemI877v8L1m7dQJnIDBPULY3NOO6Y41iJZ2B4awKnnjjXjKTvf//7eIl6j1YXBqkOqDsjQ52JtcT6pCijKKopZ6izppHpzeHK916KMeOnoLYhgfUE47W3/RFLXqAiv32XTegNEeBTx4zAJ//+Chx11Gxr+Gla5Pry2bz7H0Tnri6bhV5HbtoybBjOPPMMnHTSXHSMHIaLLrwQOTa2a371SyRjdbTknWEgoymSo0GhCb0shagMhoz7QsZJc47BP/7jP6ChgaoOslj67LO4674HsX7jVnT39NES7zVVYtzodlzAxjRl8gTMPuJQ6rgJlmMO9z38GIosh16mUVKnTLAF6X/yCcfiEx96H5/roB7NCpYeqYrghdQAGZ/qJgtQZIvFSS8e2daAD1x+EXXLIn53063ozvRTgtJwlLqhozDG6qO6T/2bDYKMUAqEdN2CWDuPpqNT/RgQ4fTnPdkX8t1/SDo68MaPEs+jpqMlaMWqxUsP+uiHPoQLLziXIgHo7C3hPwm07/30R1i1aT26Un1YS8t6I3XFrl3dWLjgSTyx8ElMmjwT7e2NmDBhFFKpAp5f8Tx1vjTGjBmFCxiXLPXVq1bi8YWLkCsGMfuQ6baldEN9E4aPGIkAK2TeQwvwpa98BY8ufAqbCMquHlr9rLEI9dMvffZzOHXuyejv7iNYM/jxNT/Hz397LZasWIF1VB86aSmve4m67po1ePrpRVi7Zi0OnT4Lo9rqMGHqodjw0hasJNhVDRocOIccs4PcbhH1uPseX4hMTzfqKAXGdAzHN7/x79SBo9jZncGNt92Gb33vR0zTIix7fhU2bd2JHeTQq9eso1uPpd6XfsdOmIK2EeReHeNxx1332sdTY5Q6Wr1ZYsMa0z4cH77i/Tjm6CPJ9cTJCB/mWd+v3ME8rd6wyRpinKI5kYixIdMip/ri9nSPYdTYCVhPXX7zlq3MQQ1GjhiOU06YS7UkaSDXtNEnn1uOhx6dj7CMS4aS84HJ1/HK4cfHjXXm8+h+95/2Xxt9lSRbr0hTUV0mOXEzXk8aPwHnn3++vX1nH/Cv//EN/PTa36KXBk2KGeyikh8IRtHU1IpUXwZdXb0E4Upc/fVvUmTutF3azjrn7RgzbjyKBFVfbz/6GS5GoyBA/S2XokgjMBPxer4vRCMiY/rQkuWr8fVvfwcvrtuIND16GU6Ke4HPnHLSm3DOmaeTk4jplvDDH/4Ev//DnfbV3H6KbzJ05GhsyPWzojdt34m775+HH/zop1j54jYCJIwzzjybXCWKWKLWRlJksQpQ/eTI6uyW01Dfhz/8QYrnOurHwAPz5uEnP/s11qzfTC4VQpx6ZyiatA0XknWNpk8ufPJp/OZ319kOdVrNe+jMiXj/+6/ATqZBPRb5bAYRxv2WN78JRxx1hA1G6AsdQSqVO2i0/PK6G/Cuy96P91zxYXzw45/G+Zdcju9RD+9jXLuo65bDUWoFEQwbPgJnnX0Ode0Ey4SclkhjzZF9GfNzn6J5jeiAA7Nco+E6b9Y2RZha8hlvfjPi1LE0WHDnvffhtrv/gsYxHQjQSCkQXCWCslQOIZNWt0SIrbseMsZfpDV4BXXSv/vo5/Dpz30Bi8lJ4rRo1Rab6xgZASZgNtc1sYoJyM4+tuSg7Zsurn31N/8TazdJd+UzoRiiyXoaVwXUJRtw9lvPtvTu6krhxz/7Jf5w513UU0sIM2yYFmiQxx09tF7jNAQamhCm8t/DFnLH3ffiU1/4Ij74kU/hBz/8KZ/vpWGUQoiVnUzUgXakjYpo+FA6Xgv1utPedDILBjSeltNQ+5l9WL9Jyzlo6GmuYy6TQX9vLwFHY4TPqddh0/p1+PUvfkE1ZDOId/sKx+iR7cjow1NUHIe3tuIocso4OWEoGmZ5l7CNHPrq//g23XewYXsXuimOtWntmm1d+N7Pf41vMb07+tKg6ssGqM9KA6NHj6EhdriBUqNN6jaS9FYPSaU36DWgAw9MOmtpzLxAqREOfRi0sZ7chwXxm+uvQ5qccge5SpcWYWkIpiZC7kLrlS5IAInbESMEbIgiiaJ9yWIsenY5daIg+ll5KVYkbxP45M5EsEZstAmqhsy02X9vXw5PLn4Bq9aTU5KFZahKaJyin++T4j5q1GjMOnSWpfUFqhD3z3/cfTmXxaMGkUlriUQN09zMuMmh+7N8N9PP9PQSAEsp2p9YugzPv/AiGsnlI7EE49LXesm5mG/1+YWoB2Yzacw9/jgbllQ/4s4dW9HaWI9jjzwMU8aNwRwe584+EnOOOhyn0YA55oiZVEVm4tCpE3Ds4TPRlIygZ9tm+/xgS22cxtlhrr+SaR3V0Y4RbW02XKlhW3WS3/z723DfQw+TI7ovAheCFPt1rcgHY+hhA/7tLb/H19hYr7v5Ttzx57txFxvZPffeT/22x7riNMNI4NRkkTBluXHP14gOODAFTZYbK0ciJ4sO6i2tDQ0mMjdt2oHVa9eitqkJQY1TU0zqY6IIsMXTaMgSFVkCLELRSOlK8Uthl6DlzsLXR0PlAhRhtYxPwFXXSTQidZ0akhBBpKkHraEhglv/8Ecq9Wl7vqAEqQ9QJirDqZtIHJxJwuKVL2DN9m3IscIFvjJFfT05NrKMiUpdlJUajSRs0VqRojJD8KcpxgVkWalp+ivdWoqg5bjiMgKmluI2NNRh+rSpjFOmRRmHzJiOq770z/jyFz6Nr1/1JVz95X/Cv3zmE/jqP30aX/z0P+Cr9P/XL36G/l/A1/7l8/jK5z6BQyaOgvh/S20UUyeON7Crc3zkyOFoJGeV8JXY7ac+/PD8+di6s9O4fIDqQTmcQG+OjZINv0SwFimZ5j36OP713/4d3/z2d/Hlr3wVP/7xT7B06VLT123iCMtaxaWe+yL1cBk4rwW9BsDkS5gXtWp1AegrDAlWqLo3tm7abMOBGqLTmK2ApBGOspRxjd544OmnDqU+R/VrpsgN1DcaJpj8uZu9qX7jbNK+bQ0Q9TiNsWtRmGbfqJ3vVPcSgVxgJTJym7ihCRwqAW1aENGn0EhZvquHolWjGAKWnGYFGQdh+kxvlKJPjiRuKx2aF7bMwCxTkuM2+l4QgW3tg/yTYfTVMq3AlPRQqtrahmHs2DFoH9Fhnf7aRKGNroPGkYA2murNyJEjaLi1oX3kSLsfZwMWyCUdWpqbqVv3IsbyrKut4zv0qb+yNc6evj6qFV1I0LpUmrVUWPeUZollLZ1QapWnaDRqjTNhRlHS0i/Oa7OXmE5NsvHnXorcweVVF8q3f+9vRQccmOry0TIHWQFS1NVxIhDqxfWauKAKo8gTcP1wQYIiqK818DJIfUmzcDI0nPy5kgKrvrkjLAoUWq9N5magNJBYIblCdU7hfD2JYpS3DUj8K1L3TauvygQ3Gw4rRZ9sNsuaolrP2mxu+uvdet6WFPBPa8HdCkha9WxQBYJR09cEWssKK5ZerNSiJ2K1jjxl9/sInMcXPI4bbrgRt956O26//Q7ccNPNuPHmmymC/4Df3/4HXHv9jbjuhhtw3fU34KZbb7H7N1H8/v72P+J3116PJ59+ikBvtKUN2g3ZX1YssGn9kTq9NR1NGzAkJCl4X+nWJBibIcWy0kiQhmT7qKtK1+3p6TFuSbQxLkollplZ+Coz/sjbP4pU0gclMCVWgxLP1Gk0f7GHSr3mVarwxo0fS8MjaZMpyAZQx5YbkdwgEIrFHFs69cd0PzMtLhA2UEdZoBpn1nhwkuE1fKgt+VQsmn5mfRZS0vnMnmVlHE3/dFLupUNpGtyOHdsIeq3RKaOjoRGjmpoRlG5VyhP0YRTJ6nMhcuDaMLqzvbR2g6hlYyj299mISJ3aAytTU9b0OWdNT3vZu8W2+eLt27cbQLQmfdGiJfg+DZAf/epafPcnv8SPf3UD3XX4L57//Nqb8c3v/xg//s0NuOa6W/CdH/8K//3L6/DT392Cb/z3z/CjX1+H+x9+mJZ70ibu6ltDWY3zM2+aKN1Y14CJY8fZmL/GylPdu9zEjVIOwTwlEBOUphRpra/F0YfNsiHdOccdg5kzZ6CJqpXKShzYyoqMQss59Pe3hd++6YADU0AIUN6KA+pTeJu2bqF122l9Yg31IYwfMxoJiuw4C7CQSiHV2yNJW9FL6+uTNr0sTZGlaWQ5AnHXli026UEfexK3kgGgvnUjAo5Rk2OJuzovI+mg9BD4xOksEH80BCjwb9u+lfeLOGTSZIxsakQNOUkkFGDjyLA68+jN9KEv22cd9D29nUj396CZYjVEMV/uodjcupVp0JSxjGsbzIS4kki6msSoJjusXPkifQK01BNo7xiFVLaAnlSecZfM7erLYuPWXdim8etEA9Zv3YlUsQZ9LMNu6t0rN23Dlp4MdqZyqGHD7O5nubAxaJOuvr6UlV2QOrog9PazzjH1SfsvtQ9rRixYQpwNLK6Z2+k+jKTh9YF3X4z/+tY38M1/+xq+8uUv4fOf+wwOI1AdVywjJJWKcRT1LfTdCvTA0gEHpkSiWps4JAWETRJY/uIL6CenYdniive916a8adpXPQ2Q+gTFsgwGKttRcibNUNckD/nHWeMnzT4GH7viSrzvXZego7kV9axszXm0ClB75osEAold8kxzRhp9oWWt7+dGqfRrCCRYo3XgYePiDz/yiOlWHSPb8I7z3o4ErVDtXxSjMtxCHTTMytQiM40sdbS1IKA+WYrAltokznrzabjy/Ze7biDCOEpjSOAUuxH+NbZuKw6ZtqcXL2XaqDenMpgx81AcfsSR6GUDk3jXpwLVtdRK67qbflJhtK5bOra+V9TcNhyXXv4+vO28CzBp2gxTZaSoSC3ZuWsXtm7ZRn2dZaGX83jy3GPw+U9+EqnOndi6fhVCxRSyPWyAqW40sUw//dG/wwcuvRhtjXFMGtOK0R0taGlpZLIlSRS7jEiqJjwTY3nl3eSvng44MEWaoiWl2z72RJF8z8PzsHLdGptUcNKJx+DySy9FjFwlS9FIlkYjQRWRpcVJwDKFMpQ0j3DOEUfgS5/9DL78uStx8bnnYXx7B2udVjD1I41MKDNklPY+f+TWgyt/WcAEpwpYFlOWXErrvWXk9Pb240ECM0VuF0lE8Pbzz8F73nMJxWHC5kP27diOOoJWH5oqkat3vvQSEqzYOF/6rosuxFe+8kV8+YufwKkEprh8iY1Ps+TFQY2DUVfVtDA1mK6uHlxzzc+RJLcdP34CLnrnO234sJAltwsUqZr0IEtuFg0zjeTkel4z2seOHYXPkZt98fMfIWf7FCZMGG8TMaLJOA2/om2Bfc9992PH9m4rB31NTbOY3nb6Gfjtz6/Bu847BxNGtWHOkYfgnLecgu9c/TW8+4LzkGDgUibPsqY04nH5M8vw9KKnTRXxd1ym8FDpDS2O6YgZElgkcvnGFzasxfW33oQtnb3Ut4APf+hKXPHey1lBo6hoB2wUIkqAxOMR6nJR8rgyzn/b2fjCpz5pkxJSXcADd92N9S+8SE4bQJKKPm0YljAtSMl0lqp9hEq6rZxSQBDaVBJyTfVFCqDSmVQE0n2ffXYFfvarXyGtgYBwGe++7BL8/Uc+hCm0muvI7eoZZ4Kmf5Jcbyyt6XEdI/EPH/8oLn73RahrCeHF9Vtw3333UL/TFjHMAxugbxBoFaFb3kqewwb6Gw1zPrNCczDwltNOxGc/8WEcMWMSmmsjaKJLUNw2JsjNi2lKihBmHz4Tn/nE3+OU4w9Xu8WCR57Ekwsetc50reWRYaahwYULn8L8xxYg1VekMUmJwDeq3/jkucfiqi9+Hv/571fj/37ln/FvV/0LTj52NvJ9PWzw5MpUWbT3/KaN63H7bb9n4+lk2lVOMlIl8Zhylpve/VrRAR8rtxgZuYwMK0RiQeOw69dt5DGAaVOn25qa2UfPwrQp0ykm22zmzaiWFsyaPAlnn3EGLrvk3TjjLWdg+Iha9PSVcdsdd+KGm2+hfqXJBmXrx7zoXRcQlwE8s/xZLHh6CbIE0OGHHoIjjzyKum0Af/zTg1i7YaNrinTBiFisM4DUEd9Hcb7yxVVo15zIkSNQR6Ng2rTpOGTmTIxub0dtLG5zRqczTaecdCLec+klOH7OsairC2Pjxm343Y034s933eNN6FWHehBnnnkmhlE0Pv3ci1j49CLTj028szhXrl6NcRNnom14I8aNHYvDDz8MUxm35n9qUsbIYU04+fg5OOfMt+KiCy/A4bMoutnmlix9Fj/47x9gzdp1rpOfjUVdR+rJSPWnacjtREvrMHSMGmW1FmHedZSm2NbYhFYaRfqukIohnkwgJc7O69WbNuGnv/o1Hl2wEDVUjyTKm5tbcOYZb6UxFFdniX1v6KnlL1C6zEcsqh3qVJeMXcC1puGQYj0nOvMapo7+vf2l1wCYpKoo1I41TKhMLVv2LAughNaWVjTW1mNiRytmTz8EJx12JM4+/gS86YQTCa5DWXHDEY0HsXpDJ27785/xu9/fik1U9gsEuj490kgQX3LpecZ9Vzy3CouWLkOWnPOQQ2bh8KMOJ/CAO+96CBs2bYA6iYPUAfO0uClcrdEot+FYne29/txy6oACKytHn3Qe3zHcADp3znF486knGxiPm30U9bFWir4cnmVDuOH66xn/vUira0aGDp/XMOjpZ74NDS11WPb8aix64kkT7dIb1QG/WZOfN29GU/MwtDY3UbdtxpSJEzBr+lSceuIcvOWUk3A833PYITPR1NBIUd2Fx8gNf/GLX2LFipU2WZjWD9UeZYCKCq+lu26mYbh521YkWZ4NjS1URyI2mFFDwynKFhEtECTq3yWXLDDf/Synxc+vwDW//R3uefAhG8goqFCIiY6ODpzEdDTWJ2wStFaCLlq2Bg899BiSsaSNrombmk7LejQJYc6VqRqgA6mrfne2f3Tg52PyT0LUJv5Kz6KTqJMupv6z5557ztbo7OrcRZiEEK+rRW1jEvVNMYr9ELbR/yXqTXc/8IhxyjvuuosW6E5mWNxXBkWJ3K0O4yfMYOV146lFi7CUcaojvn1kO0E/nIZEEQ/MexCbCAR9LJSM1fIrJ4tZ4kpLN2TbdHftxAu0nDUhd1dnDzlyCKFoDI3NdTYxuT4Zw6ZtnXh+xWo8+NAjuP7GmzF/oZZNsG6YXqVJpRchhx03YSJ15TCWMz1PM13aJVjGTIYA1pDh1u078MyyZ9C5aycytM71Nd8QFe9hrY22FipL8bl563bjtn+++z7ceMtteP7FNcgznGavZxifOtO14504XCyqFY5lbCUwly1bis3UhXPaOUI9IvEYwgmWF/PYS8PzuTWr8TC544ME+y9/dz2eWLyMCIvYyJV2N5YxpplL7e2j2IiD2L6zExte2oWnlzyDpc88Y3qz69etMf1Z5aryNDIw0um+O6u4/aUDPoNdCrP26VEU6qgWlwrRcBAwZSBIFypRu26gdSsdU2KzobbWJiZoIf0OVlo3jRvNYN/Z3WvfCxdQNCpka8FpaGgV4DSKQbXc7Vu3YptWSpITDG9tQ3vbCNQma7GcnE3LJ7REN0uZKL1MnCFELmM5Z2VpJWUpL4PDFXEykUQH0zOKYtE6shlnmBXS39eHdRSlmzZutGl3BfqXooyX8Wl5hq5VYpMnTzbOqb7LTRSVEu9iRtJDtV7JRDBLXnpex8iRGDm8jQ2pyYZHrUuLpa/+yVWr12IXjSYtrYjGa5Gh7hciiNxy26gKGZlM2rqo1Blu63lY1lGqBM2NDdYlp3JN0uLPs8FmaOVvZ7m+sGo1yzaFNDm4vlmvqW82SKAGpnpio508YYLNftc+TLyFbds7sW7dBuZLE1NYfixHW/7Mc339w0qOmdeRVe+IFzr1L/eHXgNgsiGy5atbQ6Mw4laa1KFz0zkJTBOdLETbbo/nEodOFeQ105JjJUl0SWxpxrb0Kn+pqUBuqw5Z6TkWuOl3lN2aFCvZnk1lWLAJ+mudOuMm18swvDiTAybfxALXt8Pj5DjFcs5GO2zDVaatsrMZ//RJP3HYnq5ugj1J7qhnmS/GUyBgpVa4zROoDNJPFSeSlNC3KtVboEnJ6hJSiWokqFZzBCjiC/mscW6zMJjnOjbOVCpla+jrG5psiYkm5UbjSfsuUZzcTAv1MgyjWgqGBQrWFqPQunD1z+Y0/Y1+2kZHC/OsQTDftusxQS3urlF7sj2TQOrOso0XeG5Z4zPixplMvwFew8S5HAEf1SJAjQpp9hHLWmKcD1huPai4nDvSuby9W/tFB1yUG8BUeWqJzJwMDg0dSgyEWFl6LzUVA0mWFSteo8/WpVm5GteWrqiGI1VKzUV8RGJE6rtGUARCtVh96lktlqVn3SeaJCuuKqBouFDDg2oOCqNzA5UHONu5jUdLG8+DBL1EpSaQiHHpO486apZTikBJ1jeYPtmfzhrANYGkzEpW+mTNWt4YhziiBhU0JOiel7RgmnhPXEnhVKkae5foVxz6KH6ito4cbZdJBn1vqJfvCUbiTFMEqUwetXy/NlQtMi1ayqsNFAQoDbnaTh7Mh2ZcRTQAwDg0A6vEhh+hVNLsqjy5g1yNlkeQZ+s8Qo4vDiw2pzmuGtdnpFZOxrQYv6SMRLzeJfEdZF5UhhpHt40brDYdVaNmz+P+0Gti/Bgn1JEFpoxIH1EFKYMqQFudyGvtDKFWrDmY2nBAQJY4iNIC1PduNP4rtaDEAhRX0pivWq44p8LlCXh91sTtwkHg8bW6r8qSyNXkXYFEYQUKG9MmeJRfiS3rmCenEUdSYcepD4o7GOfzykiiWZxMkyPEpWzHXYJYHFrxiiva5Ac66X0SyUqDpYOVqR4I7bEubqPKlJ/KJE0/a3A87yRHbmppJtA0/s20MZ8Ch8At8CvtWYItQrBJPdAkE80jkFhVgxBA1OjFbZU+zVLXEgdx3TDzo0nIIe3AQU6pYUyBT1txq5GKE0tSiJFYnZGBahQtR5XJrS8nENlgVRY2SYVHG6Nn3vVjh33Q/3RvT3ptRLme578yoCwJHBLpKnhVjm6qghwndIq8HtQSUlm4lX3K2bo1RKY4VUi2SpLiSUfprlmKRFkw2kpPYcwoIKBDBCDRYu/VO/WNcs0aMp2IhawRugjPBZaiOK10Td7XuwVc22+T98VV1e1lW8YQaJr3KJWCF5YeAV/Asm23mStLh7gwK12NUPFJFVB+lUfdF4gEYuvrFIdm/JqNrtEi24JFwDawE2xsmMKGOKN9WaOv176UISNSz7tJGha9lYfSbKAjOPW8jE6lU5wxHNRnY8qIaUEbH8izYUSZLzV4hZOqpVlFLHKCk3mwSd6sK75fUkH1ZZNb+CfVS+8vMv3e6//XRGCeXfY/bewLy78lMC0GForiUEt3Pn68JHuJ19L8oxGLpoYFHWBa+IA/S8mNPgyEEsAVn5t5xGe826pw7TCn4UrzYiC934W1V9m5NgiQreOParh47HTvpLDe6d+K9D6lz5FKpnJhZD4qO0uYzp2/Ni6oTovOB57UmbtrZc1//56e15P+nqAqAx1NJviBWO4q+4Fy1Q1F4ozFaqpcKR7vdPcQr5yExgNKyo6A4APIy17FiVupYIIM4I6eY6G5gpNRpDat0I5URlZO/jljVUYU3i9shXdhqt7mPbM3UhwVx4a0L6fK2y1slfN35n0lzp71j55zpKNzA2GqGAcdLwxkcj7pVA3NlYU77laudCpz927GVXkHPeXECOjs3H+3/34F3RfxXlUy/td0wIEpqgCzugCt0AacCi/EsrBClOO5DzQHtqoIDHlVhTbgZc8qvAvrhfdo96u9kasAVda+nKugl7sKyF6hqwC04pRO3fOPztn7LazA5JzSy+C7kV8Ofpn6ZSmn8nVlPBCfD3a316bi9JwisdiVJoVXevbuqmlvfq+GZI4YKQkHiox7eecDtPsbVcQSF9VOQax8PBLW9gwjMaOAlcr0nrFzz6mS9vRT3P7Bd4541wf2Hs7eInVgb2632PffVT83EJc1Ae/onzOMgokGEmtelbz5R8+JVK6+KDanwiCJayq84rIDHxDzUH+8Obt27zVYmuRyXNjes6ezWP92JBnpiK3CJfFvTXxBpXI9rwo5j72BUk7k6366cv4qNBobnpOf/kQVrmPne7g9/XSthypEz4rvvp0Pkmq3L//9cZV4KyDwnQ/KPcBZRfvOG3/oKn/0NHASVSozkQFMz+mCP/L1JZsPSgdM8UrBxFOp9FzVs3u6PUnxyr1SCjTPOZu2lwQDuZr0CyXlb2j87C1Rldiqb9LTv/SPztjhtQqVzmHbHX3yW3CloHl0hapCVF5UrI54Sv8Bp2s940Sae3av+fXC/nXa47n9ouqY9/W8H4aps0RXPaMy4sEcvQdAabcq+aw+14BHiBc6Nz+758ArPz8d+nVqlB+3H7+Lp/po5B7bjarv7+X2PsmrMz2+ZxR+EnTHv//KnQP47q5yv5JjvcH707nnKmEqpGvv1CO765JbIbv0gu72virn9CZ3FLlwe6d936mmPRK237Q/z7kwVRB010xYhZdaPrwy1BmDyIns3J16fgM58oJUkaslu1OJxHceqSFbY97duXj37ajF7tW9/K+M/wf35sLV/QjKbwAAAABJRU5ErkJggg==;" parent="1" vertex="1">
          <mxGeometry x="450" y="160.75" width="89.54" height="68.5" as="geometry" />
        </mxCell>
        <mxCell id="ug6Eu8pwcORwcSIKxxkM-2" value="" style="shape=image;verticalLabelPosition=bottom;labelBackgroundColor=default;verticalAlign=top;aspect=fixed;imageAspect=0;image=data:image/png,iVBORw0KGgoAAAANSUhEUgAAAKwAAACdCAYAAAApF5PQAAAAAXNSR0IArs4c6QAAAARnQU1BAACxjwv8YQUAAAAJcEhZcwAAFiUAABYlAUlSJPAAAJtySURBVHhe7f0HuF5XeecN309vpxf1LrnItuRu4wI2ppgaSiZAKCFA2kzyZZJJvu+d8ibhnXmvaZlMJteESTIhgRQ6xpTQTTEG27hbSJbVez06/en1+//u9eyjI1myjbHADFpHS3s/u6xyr//dVtuxjoKdD885PBPxYt3j+fD8hPOAPUcBop4H6/MfzgP2Rw1no955tJ6TcB6wP2qAeqdTcD5Y550/3WPnw7ML8e7xfDjH4bxUeH7CecA+3+EMYvM8WJ+/cB6wz0cApFGMQvf3ebA+v+G8DXuOwrMh6nx8nw/PLpwH7I8YIF5Hf/PBdyaCPhWcsfOAfQ7hPGB/xNByuJ4K2NMD984M2POQ/WHDecD+iKFlbf0FEp4Ov+j3/Osnz4HreRfihw3nAXvWEMgynzgBbKfCEgkbAHvySZ6I5Ccxujv/zXD/1LTOh2cO5wGrEAHK5V27+ysmGApPTZ0TE8BLpErpTAjV/bi1Y5KReoY3uBSlEeek1b0IJvVKXYeObnJfPwNUu6SnCWJKixidnw9nDud1UjeALQ9gCCApIjtR+eGMG3qqo9jivKvQBcwY4NQlYBbjFr+b3WMXuAnd9PuKANqf64Z4PH4KSNvtudKcD6eF84BVADtRPAmroLLj3b+EYqqTFAB1rwvEdk1vtHUSa0jS1vR0VcCr6nfNr1lHqO1KURJP6L9keFHv1x2YrZaMCj0TgfS8dH368IIEbASeblP/WMJcfhFeuyf8AVaidVDmAm1MUfiKd8VmRyBszIsucuOKKaWo2EkIkHFkNADuAlkiFsmaSJBmkKqRdcb18+HM4QVpw0YK0XEzL5z++4yIfspDzxzIDw0OdBKeOQkLaMKNYKcQsyQGrbDGw+2Zmh08ftyqHRkM6aY1kw1rCJQYDjHFlKRwuoWaT+lX3GqyAZqcCahpSdR8S89k8jawcInlCwXPAcAC3qg5zkvaM4cXLGApVNRkpx89nK3Uz6GdyQ9gAlgJwhAkAdtKKwBWgpKEQbW0+dYfbLM7v/RFOzh+wmrJjtUFyIaQ3kFqysZN6sWUAKtfMndjuqfkJI0zupduNKxHNvCyFUvt5/7ZG23FihUuUSM7FhMhkrrnw1PDCxqwhPlgPQWLzyNgSSoCbGwOsCqHIte5n+ISElbu/r33P2If+NDf2IHxCWtmeqwaT1oTwLo87UhKSyIrurwVYFsCazIRt0yraclyxfK1hq27YKn92r/4Jbvk0kscqBFg6/W6pdNpZXQ+nCmcl7Dd4PnxH5mThiL+FUKVIKvVEgKstLnd+8Dj9md/+0E7VqtYZu2lVunpt2QuZdVqxXKZlHVqTcvIzqWHrC0g1tsyBdJJi1cq1jwxblO79tgVqxbZ773vbXZpF7AEjs2mQJ0kt/PhTOEFa913MXN2/J3tBqB7DtHBOj/OOyWCY5e4EsOYAFXZrOWU1P2CEZseHrbmsuU22d9v9UWLbbp/wIqDgzajWBwespmhAZtVrIwOWWPRAjueSupdyWylh7yIIuG8OfD04QUJ2PlAjc6j36eE+TfP+MAPEbog9eDp4UQFuMYUnVC6ju+Fx9+KtzzGmm0rHp2wzkzFiofHrDUxa+XDx61y+IRVj52wxvikNSenrXZiwmymaL1CfrbasIwPUJwPP2x4QQOW+EwhQKqLt2fzwtlC9K4fTwI1gDUANi4p6KNYWLZ0XSmmZZu2q3VLCYgZXco2OpaTHZGXY5VpyIHSvbRAHatWLVGrW0EmQlLH1AvPEvupCC9MkyBC4Px4WngWjzy34JwSpYgT1ZYzJsDRsa+YarcUZWfqmJDX76DmHd3Ly1lKyMjNxeIeM0oiqeu5ZNxkPQjseofnBXiY4Hz44cMLE7CECDNRmHcenUaPzI/POThQT0bMgSBd6T8VWImMas2BlijTQEccs7qkqX5aU8cotvDQVCgXpkI18PbpiHGdk8/58EOHFy5gozAfhfPOOT09/ihB0HL7dL73FZkDjkQiAFTMKKb1G+mZSKSsk8wopgXGhA8IxBJpURanSsdExhpKuKmUmrGENWABOVyyfpXH+fDDhhcoYAUMOkS70u6UthV+UM/e39mNwdY8cwCET4lc578o6JpyC6DVD4wARv1DxGsXmeI6pgRKAXQmlbfZRI+V4r1WtZQAGRJrSeW3Eh2rxppWTbR9wKAjm7XlM7t0lGTlSUZs3cT4cQfKiaZQDUOvcdexpFBc7nY6N2Vzd5VDeJyTF0h4AQJW1HGwEkVOgcnpqKMHJ67uNaWIW035PVK0ih153VxmIlWTqMeaeocj/f1RjH5zjNqBd8jD31EMbQSyRZ6OQBtLKs2YNVJxm1Y8kczbVLrfipkhq8Uzrt6FS73TsnqsYZV4w8qpptUF2iYtLrDHALueYP5BgtGsnxRgPd8wC43yeKDHwgmjY100V125A4mf0t1HfLbhh3n2WYYXqIR9anBaAVqi0NHBnsTbYUIqv3UOcSXgLBlFtQ3SLK0Y5qHI/lSjpdVYjPIzv5VGBECpVsOSRKWbxDnyKEXeaShLXWvV3G7N6PlMY9Z62iXrbRUtp/tZATsj1CZkt6ZF0rTeYCg3JamaUAQkHeVdb9a9/C2dx0D4jz0oc6S96yeOMKpowAl0FQ2hYzzJCJ3/9NCqweLPHPTKqaH7/vMZfmoAGwXG2iFNjA52wCqqtgQipCrYcFnpE1SjY5AogA5l79c5CpBh+h+/3cIUuCSxFV3cdLut/FlJcpOnz7sZ3e9JMSdg1jK1aUtUy84QsXrTsrJRYxJLDOMm1OJEayoNzmEqL7fKrHLHfyIDBCAogBUN4hEpwGXQpsiENC41pbWcp3RMJJ+5rLw+/3iuwk8dYBMJFVkgbUraNRoNq+tY0XG6VLRio2mz1brNVuo2ozhdrtlUuXoylqp6TsdixaYVZ3Ve1DMlPVvRe6Wa3q3r3brSqzVtptayYrVl1XbcqhIyE3pnqlKxWqPuXVo5ifQeOVDLFiy04b5+W71suQ339tnShYts0cioLRoNcfHChbZk8SIbHhoSQMRczYbV6tVujX6MAWAqRqBi6qSLUSJISJ40nZJp5jboxDUYJ2LcrpkWUjg7NLmDaCCe/annFl6Acwmi6nIMLhW/IBmxKbAwkSQmInK9IpB++a5v2CfuuFOSNi51ltHVEEjhZPWQK9EZrhQTUnzhi8wLSVZJ27YaoyGxgoOETI4JqDGp+o6kTFuMkc7g+XesXCvZ9OS4zNuUFa663ZpDK60/lZBkbYqJym6uxJRGPJZy56WUkDMmm6RenLT09LSNP/SYXbd2uf32e95ql6xfr2epmXCBFFZ5o9/Pe4BgCk0RonvqLmWYUul6xZ7ce8jy/X22aLjXWmLy3ozoiRaSmRDC/LJxHn6fpPKpR2j+fNbmhQtYDmr00wEbKi9nRiBryDas6+anP/cF+8sP/q01c4M2G5sHWFUtVA4QqGH0n9dW/yVQy/qNlG7WalZIC1y6Vpfqb0m101MQFwPEWnFLJeR4CYTMPayWZywt47g/K0tY13Z2+q2U6rcMgr9RUdqyUz19MYP0K2xSwszIxKygh7KzszY8XbIbL15j/+rX3vnjBWy3pX1OhFMVO150aMWkXVr25W982z78yY/b+o0b7M2ve7Vdvf4iy7onK5mbBtpRubpHNyfCeTdpP0bnhJ8NwAZUqXSRrRUCFQ+/AGLHaiJmTfT8+Kc/Y3/+V39tuTWXWn1oSWhwXu9SCmDh/PAT54ceBR5g0nRxdsZqxbKtW7HSWpLcDUnRJhI2npQzlhRGAa6A3KhZIhWznAzWmOzXiQN7rVkuW33FepvN9FmfbNNWZVZgVslkt6YlfTtNSelY0kpxSW9dz0uUtY4etcLxCbtq9RL77ff+4k9EwsJ4Tf2RC3zYFNd/+/6H7S/+7h9tt8oXz2Zs6eiQ/Zvf+hf2oosu9JlmHb3jJgTBG4Tzbpx3eX4kzIf58xF+KgAbhXAG1elDpAemYzIx7ROf+Zz95d/8rWXWX2WtlRdbmi4kOWdxSUym6tVkd+bUCG30s96JK10kK/f379/ngL3lmhutKeci1l+wohynTiItr19gbUnV67yBlJFkTXYquj5tx7dttRP79ljPVTfYdCpnw5m0xeu6F5fsYq6ApHRCYGeBTVVgbQusbQG6r16zQ/fcZ9desEIS9l0/XsA2RCzSFgM16PWQ/S2Lyrbv3G9/9ZFP2N2PbLbsglEri3a1qXFbMzJsv/OOt9sN11xh+b6MlysmrePaBsms2sXpn47KqwMtF1oohOcbsIn3K3TPXyBB1cOwdyJEMfqfEJECwsj5EuG2bN1mDz36uNnwApvN5a0kz31GknO2NGuzRUWd13HMZqYUZxx847JBs/msHTl2xJKSpoM9g3Z8asIm62U7MTNtE3puZmrWpiambWqmaGU5SQeOHVY6ZSvNTlirOGU1PdcYHLGjsvXiauSpyRPW0HNTU5NWLlWspFjWvelqSY5dWYxTspwAWTl6zJaPDtuLrrzMRuWURQA9/fi8BzEqIrXdkh8g0wcNU5Zz+eVv3G1fvfchqxb6bdHFl1l24RKLp7O2/+AR2/nkTuvpKdjy5YsdnG16PGT7IxBS0iJBMKD4u2Fe0TmN4vMV5uX0QgqhmvOlqwew2sUr6imoqO6zAi7tgbpD4cUk0WJMA2zXROS6QEC3lqIkoFwrEbqmd/CHIbiJ+EmfPN1gNascsJbe4b0QJYak8llgWNN9uVCSujFLx1VCSekGJobMiZrejysdVhnon3e3wVTcdqmja9iPXDvJdj/OoFxbKiMMIQ0A2MYmJu2RLU/aWKVhPcvXWnrpauu/4DIbWX+lZZassd1TVfvEF++yBx55TMJB5g719a4uOu+o9qkQCq1xMj7f4QUK2LMFmlmx29rYlkQcB6I8Mfk8Aqf0XEq/M6peStoroespoSbJlD9d50jnflwAywjlcdmcvEOMS+qwFDshoCaaNUvLQ062G3K+mt470abBVQAmxMR1Ttox2YBJOS4cU7JZmYLIKtswuhzUZkxA7iCZBBaxijf+jz1AI+Y4JNN+rprZD7bttq37Dlunb8SyS9ZabMFKm8oMyRdYbquuv81aQyts+9FJ++wXv2zbd+0Wc+pVgRRmdIFyCmCpk7PovPj81vMFC9gzV3PeVRHc/3R00IqQ7B+A7SjIeFcNa6tSjELpWlpHrvkCQXnvHLOyTVO8w5sCcUrETyvSgyM5qWcEfKlQZElKQOvgMdMEaiwIx0hWRtCEMWTxel4ppcsKW/KibMK1+KgtqdSyOkfVgTVebUmqn0hgwELlbKmcdTHZo1u22ZHpsqVHllpseIlNxnt82HkmO2iJRWskaa+y5NBie3zLVvvsF/5JJtRxZ0AGFtpUbi7QNorOiOcGrIQXJGDPWM3oIsfuOYWf349NNxIQinVkWzXVKPQwsaalLY+9nfTrbf1ud+/FdI3R0lZDoAe2MaCJUxHSgxEkSmQNBOeJRpbOFwDjYSqDpLf8F0s3BVKJnjQglZSNMyYvyUs3GgMdDMOyrRFrxOg6azPapes/7gCZCEyFNKn0MdnnO/cdsk6mx3oWLrNOz7AdrXaslhu0ambQTjRTtmrj9Ta6cp1s2ox979777P7vP2DTs0XZwKIp9PGglB2oZ4rPb3hBAfZkNeFN5KcAwA0CyJyvRgUA4aYbAARqSoAgBdSU/sUSSoV+Vf1u6nkHCYDRU5ZOWzORtHQ2JXtMSEsKebGme8AMFCCtEymBW7avdwK1qpaR6M1IQuXkXZMF6QuZAiZH2cICIqnTx5tU7MicaIgjGJigZzejItBLnIQjdI9l4WgK7+9VpOiM5ZOa/+gGzuChLh895wC/wTRtnWC2HJJTdWRszBJ9PRYr5K2elLbI98hRZAQxYZVYxg7IKRu4+FLLLFpu0/WO3ff9h+3EifFASskCehtCyRQcwFEkhO5H/kLJFbsSmIiFH/6iqThqF49qC105U1C25y7MK+ap4WSZJalQLToKJC2dYNtJ6Dn4QrmBi5wjHCScH7pUFMq6XtHR05dd1k5lrJWRqkoyqtSwZrwsQJcslqlbOdW2YqJhpVjJmqmKgFqyWf2eScizrxyzZLZotfhx5TvpgwKYBGCJfNtKq6Xn261pSdGipGnJ4rVZy2aakpS6Hq+IIao205o1y7NtQVmMIcUvZw9GiCvvpBghJ0euUKtZr2K2UpbpoHRZEwZQVTXGFrA4cAOVq9vKHWxyaKRrThNFZn8BgEYDSzgQsaVna7VqcA4DRc4YGeGqKWZT0jZKbOzgIavUylZVHbMjOd2vqY4VG1RB0syByEgKF1J2MJ+37KXXWnrJOtv0gx12zz332GxxTOVRCyRpGz1b11GAbqs+NcFKrqo1VOd6p64ye0OGtqOMLdWwWdX1qupaU6z7sWUMVxNhAt55ajingJ0fINn80IIgAgZepvMkR+w6JKGCS5/uBBR40H8jFhSdE/U8zaUzgbsuiVDVdT0X2kZp8udugXu0STkadF+1pccZhaJLNp3JWy6T8cEDnCIciobMg1gsq3QySk3OSTKr9GVo5HoslcwJfPqtZypVgaSpsmDPKVM62ys0hsDQAGUqX12Z0IOAxVuXpGorA8qQFnMFoxubRY1DRbpVD2VuSHoJzERd61ZJ1zEzBGQBgD5UKtsUWKFbhn5gxP7c00+Nc2fkp5NGRUAR0BIMv6rcHXGq910rJ+8/1Xk7pbJnBOaBpZYcXWWVZI898sROOzo2JVh1rOrtqELSayDTCentpoLUn3SUFJpS03UflVRZGwItjifPcy88hd+BOcfydswyjmeG5o8NsKeHODpFRKNrhb69Lk7Db8GQhScdGYgtATYoZUAqtaFYFUC5Kpjqtzx4NXwqUReW5SB10oJZxmOypcrX1QgN5SVcxCRiuJ8R6LjWqXWskCxIxfcqjR6VqU9AzktKFGSCSkW2slJ5uRCbWUmjlEDKaoJeFV3PJ/tVMgG4u7KgJn3bjsvUkC3dltSPpXIO+AZDtEnZ1mKQokBeU0NJ4yqUlYZAmxDQMV+8S64ouCBlJL18U7m6mlJ1UwUSuhfnHhJNwffjQj0JuDiCz3YMCIlMqFZqVhfjpdNSDSovQ9IhqjH0D3qmkYoqbzM/armlF1hncLE9/OQ+2/TkftEnKUHAJPZQQupEM9JjktS9BP6DsvL5taSfylpdsabzOqBsy+ltqp1E04SO8VYQEnW1HT0YZwo/NsB28TgX2hBYF5m6BpkxB0rlitXF8U1pl5YA1aiJEPWkpGdaQBEg6lkrV3Cc8pJ6jCSlBTpVQW1YiOWsLYcnhiTNZC1b6LFsT69sMgGycPKYlY2WlAMxMDwimy6hdGVnSuJ0JPl6B4ct19tvGb3XMzCgOGg9QwPWPzpi+f5+6xsetkL/gD+HhGDpS1sSNtcrwCvNbG+fJK3y1rNp8u6RbcjCxFzOCkN6d2TEzZgK0jeekVkj6d5Q/dS4ZUntGdW51ExYuZO0iq5X5fQUm0krylksCQ0l1RO61CStwSYxITtcSHemD1R+uhj+l1z282ZDYkAMlFRZxF0O1obAilnSFljjAivzhJH5xWyPtUcWWnzhUhuvNG3z5u1WmZIZIgeOkUPwRaqYNfATLIXvwDwMJDYhKgU61aU4RUbadyU+IbrU/fmUcE6HZqOEQ3Hnhe4Np7HqClgZgfrGN79h27bvlHbqEc9KjQsQ3m+JqpKq8e1/pM+SUocV2YCYExmpnm3bt8nb3WNTy1bb5IrVltXzTMJm9lRL3F6J5UU4pSi7MoaTINXdyA17A53Y/qBlJLWXr15vycKQ1RN5B2InIemsPOh7xc5OSY031bikka4XbfbAk1YeP2S2+nIryqtOyGmLt+uWlemSEBP43lqptKflS2XUhHlphs7UhE3t3GUretN25dpFtrh3iSyDtLXkHAqXKlNV1oI0BpJJkrvG8K7UMs2Yq5dtKJey2199u61atcoHOhgVizaRI54y6nRaQIXj2mSqktaJnH3obz5if3rHF6x96eW24MWvtHFJz4aYyKSFkg3VJYGJJZtf5lI5kbWh8ozVn3jEJr53l924qN/e/3u/ZatWLLaanE2RyOdOsGo4Ji3ZkNZg/4YeaR4vPQ6paImZ4QofVIJqjgRAgkBWhGF4BuPg9PCTAWw3kLPa0/spDx46ZH/xV39lDz3yqKQQ3B7sG9ZDNaisHvTBAb2ExsKmxfvO6xn37GUTTvcM2WR+0FKARk4aiqUhkFViBQaqBKamgCxCCogV1D9u7uReG8xKhQvYmb5hSTJJTgEZydlu1sQ8KgN9tFLpdGtlSFeOV7J4XACs2tHsUpvNjuhe2Se+JFpqaNm8CeXLBBrWKzSVRrlSsl61QI/KHJuckBqmbrKnG2lpfdnBqlRLAIkL+I1q2fK+kBG7WFIqjX3Xsp5qyRYWMvZ//evft6uvuaprTomBBSiAyzmAPdvQbk0MjNGRU9nor/joP3za/vunPmfFlRfY0tteYxPDS62K1pJaTjWqlhcjJ9rSepKSM7GMLWxVLLZrq01968u2Ro7nb77rbbZu7Qq7b9tmG58t2cSknNdSWcCVs5VVFrmE9cgsWiTtsmblSluzfJktGh6y3rxMJWesLkIEYnpH6PojcJW7Z2K9nxhgUR1oEp6ByQ4eOWz//U//1B7Z/IQlFi+zmmwdnBWAw+ypkIq4U1xar1att5CzukDgy1oE0FlJrqbAmh5ZLiIj7Ro+wZph0mpC9qZSSwtMMZeaZhNSuTGcn4m9ZqUJ60d9Z3pc/XaQpsoLTzbD7C3UHnaXbIfelKRIZcZSAmyqPmulkcus3r9cdmvFewMYIWO5TFLSoyPg+7hYVnaZ8nYGmjxhzRNjluzvtYbyTMh+y0mjVHS/LmbI9yi/asXN2lgqL7NB4Jej2aoWLTV+3BakY/bv/q/fsWuvuVL0CGG+pD0bWAn44/gHORi/lbY7PvUF+5OPfdbGRpbYylf8nE2MLLOKpGtL5kGqXrGCAJtqla0hTTGTzNtQTWU4sNMq93zTho8esDUj/VbWtTEx2rTMi7p8BCQnKr+YaakNRXMcVuXXK+Zd1Ntjl61aaddeudE2brjERhaPymSiSxJXk6A66O0A1KjNTw0/OcByUzciwB44fMj+/AMfsHseedxy195i7YXL3b7EHm1K+uGJsyymLYD2FfI2M37CRgf6rDQ9IYkqCb17p8X6FtrqjddbWuI0JZMA2FVYKpAftmZNgKFrTCZBIZ+1Y2VJw3TWdtz/datOHLENl11qJuejEpedrHzTAlNLjYY0zspLbgisMTlUGf1OVWdseu9Wa06P2ZIb3mTV3qWWytErIZVfK0kNqsElxRo4YTgsqHSZKS3dK584Zlvvv99WXLjOcgsXCpx0M8nJEyiLlVkbXTBgE8fHbCDfZzNyiNpZaQdpherUCZva8rgtTTTsP/6r37Cbr77cJep8gD4dWGnmBj0MonZHUjCb6bdv3vVd+08f+qjtE8MslElQXX6hlSXVW1L/ciVlqpStXzxdVANNxnM2Igc3fnSPHfvmVy0vwGaZNinATcpMkSFv6UyfrslmF8MWZdNUkyqfmL05U7Q8ZlK5ZLlaxfqk71cvGbVbbrnRXvWql8u3UH6iGXM42EQvAEdSRQx/evixzNY6Exm9TF3AEqZnZ+2hhx6yPUePWXlomU2qEY/MlGy8VLPxmbJNVuo2K9V85MSkVTkeOS4gd3RvWrVI2fjElLUyvdYU4cYmJuzwsWN29NhxOz45a4cmZHPKoTsspjg2NmaTszO27/i0nKGClSaPW7Umdd4z4EOUk8L0CXnPY8WK1NysTZRKcoTaNlmu26HxaSuWy1ZWRG0Tan1L7Ykj475p8ba9u+Qs1W333n02Pjlth8cn7Pj0rB2VfX5sWu/WqmKhjh2Q+ZOW8zZeo25F5VGxaZkfx2YmpU3atufgAQE4ZXtPyN7Fvq8U3eSZOXLAFuTTdtt1V9nKJYschBAxAJWjF+mswQWr/hgnYT8F5gPc/9gmOzg1Y7kFiy2v2BZQBDPZ/Jha7kapLDJtBFgmzpRUxrHjRyQE0hZfutjiq1dZ71XXWGbtxZZbcZHll621nqVrLLNqteVXrbXC8rU2sOoCab9eyw2PWk3ackYa8rho8/Cjj9rOHTtsxZJltniBHDrqgGDSn49KcDwtBOl7jkIg45lDRFxI7qBVQTkyCNonzuqThCrUpSIFnt5K1frUuAPNhg2IaCN6brBetz5dz5erNiTgjkp1LpatOCQ7azTWsCVSR0slHVYW5P3L3lqi8yXpti2XbbVQkqKvNmMjnZqeL1uuPG3DejfbaFhBTl2fbKpsUxJZIOqVWRErFa1Hx5zy7ldD9qnwQ3L8eiThRrNx3avaSFbvJaq2pD+pZ2o2IpW4IKtyKc/RtOzPVsnyisMZpdORjarY15Y07pQs3ZhQGkXlPWv9cTFPfcJ6Tdeb09ISJUnraRtMqywtyilnEzfciXYahf3aGcK8Z+nDTzD5RfVZsHjEliwZlvlRtvrEMUvLqcrLpEljZ+slzDG5gDIR0paW45pI9lpWjlnv+o2Wufo6a151tRU3XGG7BxfZ7sKo7U4P2d7koCT2oB2yATvU7LUDySE7WFho5VXrrXHRBktfdZ0VLr/GmguWWiVZsEcf22b7dx6x+gz1kj0vWxln82zQPKeAfbYBes7RWmDAvu0IgKgE5lyiLtIiHlyfSSUtR1eRXsjKtgpdOnpH6pcusbIck4YcBlQ50webMgH43ZKNyLU2ZoHkHL9lYYSjwIrjp2TcPGHcMSHbNSZjN55KyDmTNS3HB2+9I3OD55CUVTFQlREnGW5VlseoUGXWdMmma6rhG9L3danVmKQjo1At5Y+Wq+uoAsvGTsq5SkqFytZTvRmyLai++NVJ2X5pSTZWLmTkVMXlfSdkJ3Zk36o43TAPrM8ixEXTtEyeuPJsybTK5JJ28YWrbFhMXRs/bM2xw2JC2f6iQkt166j+deWPWROvyKErt+UHpK3Qv8DigwusKp9hOl6QCTGgxAdFtkGlPaD694k6ut7OyibO2NFK05o9gzYjrdHu7bfUwJDFpd0S8lOuuep6u/ryqy2XkySB+IqSPyfxcFp4wQAW2nOkzA1VrKLGqohQddSRisnQZEOSrypgMaJUkoTtpDPWkLRgB+w6WwLpd6xHhMqm5GjJl1JqJUmjjmzWZlrPCHxVpVETUjlvCPxVATApZ2BGjktFoClL8vBeVaCtCsgzEkn1TFK2ndLTvSmp/JKAVdP9Vjbjz7UyclQ4VwOXVY+60mVtWF2eMNsS0b3V0bFBmsq/IYZjRUO8KXutlZRzp+castP5Ko1+x9qyI5v0T2et0RbjCGT1ukAt25IVEN5b8hwCjY2iZZQPxmPJzxWXX2zLF/ZZXYCtHdlvaTE8zmqnJeNBwK5TdrVDT0saqNyUs9mQBJbNKiACyHgrb9lqzgrljOWLSdmpYvJaTFpCz6sOmVTOkmkGXuQ4SjHUag2bmpySkyztIWZ42S232jJJ+o7qJ2vFcYD2dWvnDOEnAljKEkVCID8l5ZoahoEj3GypVotVdLmsgirGsBuLloyjqMqWZBw7rmfYGltqnhEciNIUcenFS6iBOfJxDHfcmii6pCUF7qTu8btWa1mlXJMUT8hhiPn8WDbbYNMNOniY88pRssFyAmBe0i6jI/2N9LcyqiMxoqOAJMBlJR+TAmCGETeBL6vGpYgpNV6KDlk5e9xjdhhdWcSOAN5Gkgvkwq0Ykd+6LwZgwLkOo6o8UjFSz6KQ4nMKvIYEQyo40du2Yvki23DxWu/CKh07bMWxYyJl3W1J5r02BNqiNMh4Qva9zJWSKtPKiRllcjUYOlcaWWmInMRiRsKEmSA1tVs9I43GvqMyx4b1TG9p1kZku+bkVzT27pEpV7SXXHO5bdiwjs11VHeJpFTLNSBdePGz1PEnAljCfMCG4GhVZLgRgkn1yTZMMCFDRwes7L5Yqyg1WRdoGQAoCaAlgY9unVpX9UptC4hQISGPl/H/tn7H9BuQJAQ/7jEVUa0vCZB3Vcn2mGm1ZFKSNiXUc0xILbLTS0LnSQdnU8+JrlLnCTVqvFaX7ZlRg8n2EmjzsZwDNMFwsLz/tECaY/hREicvidQTKwi0Mmk6WUlRSXmlXZW2YLw+AmxNGgGjpY06Vl51ScJmUuWXlG/IFmigMZxeJwPYIz5T4Bl6Z+j+ck0mG763J2s3XHW5rVo4auWxozZ+cJ81BC7xiPJhexFRHsAmSzYhwE6rLcpJaaO4NI8AS49jTNrO5w4L9Ix41NI8UxZwS6JH2XpkGy+Q6ZQ6fNA6u3ZZ7sSYXbtimb3x5S+xRQv6BHyZU5m2jiIaQ+2sPFZ6ZwrPGbAR4OApKn8ySvSrIRiRokMfAtEASHzsPoYF1QT+JPwp2Lm6pxOKC7Ga7quhk215pSVJJamcjhq608oJJHmpo14BKK/M89ao4fDkHSysbk2LeknZpHnlzaeFTOonLkcqUaVbpakoyErKJWWHxeWw5eRUJYWKpFQzc1iZ/pdltpYIJgUuKUv3GNMyUlbX++0Em2rIRhVRM+mU5ZIZ2aoNNbwaTO/KIAmrFqCBGlmC1Jp0qKoh6StulitKT+CUJOYDH/RRJgXIDqNCrarq3LKspHJGoI7XEgI+Q86S1o2WnCGVLS5ZL+ZKyqYXia1RJy+Fk41xMmIIQmCp4o6ieNkHJiqJokBWEa2kMbBHRd8rVm2w2668wQZUnhMH9tiTmx/y+kPD4ZKYbbxiBTZmxhSRZmq3eywRG5EAGZSdP2izMsWmsjGbyNWtIucwroLLmLBkrWQjsZItaI1b7cAmG9/2oFWPbrcLFvbaW17/Crti/UWWUV1SYvqEmDjVRniobZtqe4b9zhCeHWAhxlkDfBvRzHv5RCdJOoGG7hbW/wiDXUMatoWKso8EFt6M6MzcAE4KGUks2aUJNUw+JpUuVdtirDshYMaZmIJdJ7tVFaorxoSKVFIerCSlz5wSZ2IDUTGYhRGUFBJKibcacoYkbdvyQpOSYNkMdqLuyc4SpOQM0b6qAcX0CmHxCYZKn8krbYHUpZ7SqogZyiUBjVpIMqZVbrplcJJ8XVda0lJAlf/tHfYdHDdJ0YRUPR/qYPk3kp3XG9IoUE1IELPItHA7VXpS5WljqyuyyNFrpQam64wyIt14P6JiW+m0cQIV/WXUqj+jdsGpBEQqk1hGZgwOnKTnZMMevG+TPfbgJtnUolGtoiYqW7M6K+EhyTc161+96RSnVS45rcqUSfCdhkyWikwqpRPPYcuLHrL+m+2ixetFCYOqjcgJ7RzdYwcf+rYVd22yQuWEXbpkwH7lbW+yl95wjcwwtQWTyaGDE11RRfPqnCVQnWcXTkvE6XSGI7OHiCgu7LG2GlOM6wHP3s0ecbwgKZUZJA3cL7/FCVqqTgnMs6rIjKWzOFhFCdqqlXQ+mW7bBJyclV3VW7BSb59NSeXPJAt2TGp3jAkiPT02WyjYuMB1THibyKWs1F+w6ULaZnozNp5P2FGptBPihWNSX4ekhsakbk/0DNnxdL9NJgeskh2xamrIYy09bFOS7tNtpSHur8YHrJ0Zlc8xatmBZXL6dE1kLIsjZ8WcZYGxqHrPCiRlMUS9J2Mz6Y5swLrN5jt2THb4RIrdDSGGKs3sLoG3LSnVFBGqAnVdZW7qvabKXBFucfok6JR/S2mLtinUZ13mQtWKrVmbaUzLzhVQdb2VkbjI6BlJ7Ua8rsiH7/Q883LlzGUr/QKrNFaxxz7/T/fab//Bf7b/928/Yt/fd9CmJSgWrVxtV11xlfewxEXzo9WjVkzMCJRS+VlpFsVsqmp96bqNZps2mhITTB6yxaLCcuW1pKGjgD0wOWHTjz5qE48+bj2TMza7bYet6xuw33vv++z2F99sObWPgILoctOCOUxSLDKNhA+Rxb3DM4RnD1jCU0DLBZebHpEwrMh0+0egZVIxGcg5Ds/44yoVFgHOijhK+JGq47ecG4G7v69HHF6ztBo0l45ZTy4pqZuwHjVaRiqtPy/pyIiI3mvWylJNdHW3bKCvYHnmhCqPrCRcTt4tc13TkqQZnBhsLNmKWYE9Je94aLjPkmyMkU9ZMhO3iojMIkG0ArQCT6h4HDB2hSlkFCUdc0hJAbNSnLWSYrNZt2xeT+qlfI/MFknz3r68FXrlfknKsk8Bcwx68knrL9A91zDd8gk65MXYf0pOF6sTEipfrVVhpqKV2GhOjieM3Ks6Z9NicD2XpUdC0hZ5mUmk5WkLhJmc6IyrEpln2J6YYdJuSrcies2qLXbuP2af+adv2h/82z+2d/3z37P/9ncft+/uO2wHcwVrr77AVt3yMlu64WpVvM9yhQE7dOSoJVW3nNogVZ+x2Mxxi00dseTUYcso5iYOWuLgDlstfyNzcJcldj9p8V3bbOy737GD37jL2tu3We/kpPWITr/1lrfYf/+D/9tetHGjd8+h/nwoWe3DSlwXcCqzWsEBTA3PFJ7F0OzT3cYICGCM/ic5Yls237g8wvGZirhdKhvVLHWSbpQFBL0FoAXYRlI2kYB6fOK4ffwjH7QHNz9muWtus8zKi+S9y9ZKhwaKJnqjNgFiQw3Q31Owarlks9NTdvDAfksNLLQlF1xmo/m8nCMsZezOmJWlUhkuzErt052D41JrV61Zr9juTY/b5NS0XXTNdSKe1DncJTWFi0aHq5SAVSCewNeUOiiIQVKz01bcvcc6U0UbvOVVNjswKhDqDbdDZXjKjk7BOVKxaBXWholNvQ918uhRe0J5Lll5sQ0sWWclSagqqxdoLklQZjfVy2LIfK8VZX+zJ226UrLO+Amb2fyELRVo/+X73m0Xrlrhpg+2C/RmAjzb14djx6ZmZu2w8jpw6LAdOHjQDh4+YofKZRuXek9KnKWzSj8nP2BUZV9/sY0uWa3iSu9JY9Sl8o8US5LgciYlddPVMavufdCaM1Nh4SWCRrTqMBWUUb+KBIcc1Lbq11GbyQK1gVzW+rMZu2rjxfaal99i112x3jWrGk60lBjFqRJg6eqrS5Lpjgs37H/gGyZ1Q7VTw7ME7Fke0WWyCkODIThYFY8dPWZ//F/+2O7d9KQ1xLEGyACepCe2C/tZJWQ7YociLZJ4yrUZyw302I54j8VGlli1VLZeSQ8TRyLpsONYU9WWVGuq4jpVDYLV3JSEbMal6tIDprflnKE2dU/MwLxMiMU3YJlo0RSB4pLe9EZ0Zmc9Hzqy0yKyb2VEObGnkFrUUQRmTwKcrqycqYzss/isTBalOT2w3IqZATlVkqQMGMjBSwqsMaXjQ41KhbmfmQSAFijFPNPjY5bvXWS1WK9VWIKTlXQRI4sElpTzR2PxP91ZbUn2DKNuVTHD2IQtzMk8UZnz+ZxrsKbKSmDKJWCtKX2GNWPKL2xJKggIZNRjQiaGjQzZwsygtFev5ZYss9TyFTZZyMmkUebyFapl7GAxqN6JIQWlTZLHd1t183esNjHmji2OLN93EPv7YIdI7CXuFwMM9fbagv4BW79unV1z5RW2QUBFS3gBxFBzWFJ7otEwG5GqStYdV/ovgn5QfRRPDz8iYHWdW7RK9xTwYeAfPjZm/+lP/tTufXK3tYeXWkWlxg4TXSXZAK28QwGWJSnCgM+hzMouw+s+nu+X1BH4JA1yjPhIUtG9lJLUZtM11gTRhaUk5ICUpNJTVmN0K9ajGvdYqiopovQkKBycsYx0sGiQ0gW2d2eJdYuJIOLyfhEtLm87cLNDX2mrkfVcTA3viwLV6BUkgz8iB6hTswySVvWp2rDyUL56L64022JI+AM6cOKAp1EBj5wl1lNhyqTj/XKoCtIwTWsp4sp54wssSdkXgExmuTX4gqLey6ixC/JeGd2biCsNmT3QmyUtbFUvkoffpE+7KI141wFMSlhkBKap4V5rDA7YsvSgDeUGlHfGTujZqVza2tmsTVcqVpeUZAY9s7VG1VgFScz4ri3WevS7NiQ6X7BqpYSIJK/KlJb6yOvdgkyhXvkOgwLq0sWLbc2q1TY8NKzCiOFkP+Nw0kEuNgqFdGGgKJoAYfGFfgF8buKE4diocWXfnx7mAOsNdJqkDEchnkbTEQ7mOuuxkiIMmbuE5ajr/MHxqO+tu/fZf/jvf2abx4uWl5puDo5YUeo9LjHSEGBzUje9spMY0aGB2MAiI5XbkTqtZaSqYDkqJg5nZEdPKFJg/adnKVNCkrouoKZF2KbATPcra/4zanSqijng/rcaDlZOyaIHCKZGZCofgO1ReuTNhFlXzLqe8EZHaiudlAwY4YkuOkDXURlZnENXFfBONfokhbKiXfjtfcEqB5G5vEARUrpJIzs9KxsYDcHykLacuZakdkeNGldZmCPgXUdqQXoS5MRbVWInbGbXsazQj6lC0zsj6M/bxv8UnEGcVZShgCpwY+b4mjY5dbUsy1QEQnECy8laAkRVzxRFj7Lem5XWw1TCds7Jlh4QbQsnJqy86QEr7H/Cbr3+Gnvja19rI329bvJQkpzs65wAm5QWSimtMINMOKHd9IcJxoqEoOoVQKd+edQFxy68zT0CxMZckLBwiXRacMACNv9xGmBDVGokrHOIo4dCofQMIMHGDIrPKSiNJ/tNRLnv8c32H//X/7ZtZTlKl19v8eVrbDKVFZFIQlJTknOgd1gVk0GvgqkgApUcDvo0dUoDu/qmEQRoxrNZ0gKZfJGb3ochPQod2InNpFRkSg6AVHVShGkqL95vSCLFBVb6W5mj6kvCBQAcnYzsMIhUF8JbyrgF4CQ6mT/AxG3SZcQqRf8n9JA6aCrWUnjhLetnSLIuwmJ+EPWHCQJYW8rXJ4KrLNjhLDlh6qP3yar8yHVaCl/ZR9QkkSg3z8JUgJUonlZ61JURNTmjKjLPBe4NITpjFIzWcaZR4mIh3SOKpgIRO+Bk1QhJupIEWFHbZsXgZbUlzF1JyNzJiCXKJ2yRNEZ8526befReW5cs23ve9hZ7zStfIfMGf0TllCRkqXtb9Q7KnvwwZsTwOhOEHSsp0cFxpPIndB4A5VDyKrhgnauATgCtaBhsvlODrj5DUKq+OS/iW5Vt4OEpQzrSmUThjaFCcS+sqUdF0UOAnQnJpJbk7rQbaes0clIlBYvV5NXWiVLVjazSTFulmfGlLKV43srJnM3qvdmOOF/HWky2lYhQVqsxA7/WSRhLiVn8RqwIhBWVkej3/H6I3I+e53dZ5Syp4So61gVGyVNJZjGCgOUbTIiuzYqkaAUACcWIbSE/1lAjC9Xpmrx/xXRVUkV1qEh1Tcghm5DmmBTIJiWdp3ScFhPOxhV1v6Q68LWZpmxEBnprSq8k+s3KBCpLwhYlUXydl7ROua0yynRhnVenkbREXZKyJmZTjCuafrM5CCN6bQGPST9E8Z60QGhrR4+u0YUonhJQibQNTFa1ihi7mK7ZdLpq0zF2Lp+xRrVk2TpmR8d6qnKaWhIiU2UrHT6udmrYqlXL7dINF1tCtj8IQwPF5eE7U6ttsLsBW0b1RPWnVT76dVkqxGAJk3nwI3hGKThYCcgemIvbSkgF1Q+MYjHvmcIzAta5U6nXAaoaNYlEFXjD0mm8ahn3anC3mhW5xwfVqgKsMCGpntEzAqxAxwrTmEBp8iOTsYIyF2hjWdmtYRVlK61zJkvrWJN6qcpDrTPTX+nTV8mO1ywWdKmF7YYaV2xJIjaQisqbeaRINmbNM4+T86ae515H6rgjMLWZsCJ6IO0hEF0rXic9h6lSkKeepsHZM0vpUL9YjC4z1aWdlZTL+wgckVWybEDRULoNjqKHR/1m7icj45Q7rvq4xHABIEmq8iazkoVCU1IgYPdvJJxhb7MSQnVnGTQNnq7HJFVVNoGIuQq+Q43qGZuLagMijCcE+EpaAUmCT+VV1E8iIIlnZFzl5USm2zbdLtp0qygQswpD5o80QE7tnFfb9SKQpqaseuywDedSdtUVl9mKFUuBpafjXXL80fbKE4MtTRsz+FCVryFhkxHN0qqDS1GhkgWJ9BZRTQQpIYIlwPU2UUQDgrkzhWcELKVjtCp4mm0rVaq2+YmtnmFThKmpgg1VziWsHncQK6LOsfaY2Eznd0mqbVZSaFbHoupYEutX43J8+KKFiNdJ4uXXrNic1T0kT1tAkE2J562U2j78iS2H08MUOybFlATgokAzK0DOqLJiEhGGtVdIfpf+kgSk4NMMmyU1rEyWtNJJA4+i6jAlCT/tXjo9CzYtm1sSdoGInxZgW5IuNdWlKGDPqPxFgY6ZZHJLJNVkv8kXG5A07lMj9Sr2yDEqyInL6b10vWrZdk0MgEOpB6uT1q6OS8YWbSBescLMUUtPHbYh5G991hrlKQFYdVUZGURhTD3VrltOqrcgJ6dH5lZOR9SsTFCPsg4UkZ0hekMrcuiKG49MJmG4ptUqyOmTBC/JrCnXJYgUlV9dkrctcyonycv83MTsQYtN7rLU7F5bPZy2G6/YYHmllBZN2WBP4krlQ/lDBwkEVa9dxxRjymTOpo9N2LG9B4RAXVch2f9grjxqx7i4CfA7M+kIqCOIYtLw5JnCMwIWYOItJyQx3EZRgf/yr/7KPv9PX/SVrlzH4MZsQD0wJ1XksqwkMSZzR2BmmLYtoCIF2dy3JiC2BNSmANZqyyttS2kKgD3ylnvE7YnSrKUrZZ8w3aNy++ouOvblvTLA4LpPwZ0xEY0hziSrS3GqOpJQiiinDoP5rNHSM6qEygiQYTDmy9bEXJIouYT1FVKWkZMRZxnK1idsessTlpezMaJ8ep2q9Ie2rKxYUaw5EwkAooXrMqVP47lrSHl0Dds3J8bF+WuqPu1K0XoF+KFcUgAU8xzcbzPff8ja23bZ4EzJFkui9ut5moqNOCpqaVkhYmSVW5HeAGxu3yFHUo1FmiFK2yhfItYjWlCo9+jODvXWn276/Ns0y26OTpgdGbPeohwr5ZWSI+mLHyUw6jIPWPqSKE/bxJ4dss/LdvPll9mFK1d4z4APEcPYVF0HpKFrKGGARZdokSd37rS//tCH7Ct33eWamcsxmUpIUZVeL+oa85JJQOnoogN2DrzdeKZwyhIZGvT0IAwau3Y0WOekTLc++aR98hOf1HGrVSRte/I9kliSRorsKcWSaHoTjh05ao898LBNSJ2lFq2w9tCIFaUWmxhV9GXqmJPBnhW3pVqyNGslS1RnrHb0kM1s3W0xcWhele2XeszKiUPpMArO3EyRWBWVahQwky1ZTe2cpZs51T2vBszLXpIdRf+u7MiO1CcxofdSOiJ1cSAZH8Dzxj7rCFClQ/usuGO7NXbtNTt+zNKz02oI1SUrRsvK/tV5U9my15Zq2Y0ClfKoqoysLCU21WBugkQqGt5SHgyW9ELe4qyN71dem7dbZtsBS0zJui7LLIiLyRTFNt7FxMRp71TndeXEx0LoysLUaCpPnFAcSGdEvROiMhCzcE7T+27ZoKQbc/Rdj49Ze/dea+4/YCnVOwNKVC+Ywvunm3W1Q9VK+/Zaff9Bu37FKvsVOVujw72qi1rAGQKHWGVTmhKu0g8mn0A8MDlhDz3+uH3sjk/Zd+77nkCasos2XGa5vl6BVs+KdugBpCuMqcI5WB20XkYlrYg2gFQiIP+fEs7YS8DvKOI2CYMyBSp27Ngx+8D/+l/25LZtkoyCjYi3bt1au/KKK+3iiy+2xYsW2kBfn/X29ti2bTvsj//kf9hjMzXLXn2T2dr1NpYqeKHoT+2VtBwUZ8oKlJNTtiK7Vs9M2sSRw1aWoY8tObB4sY2sXGm5BQutU+gVcApSXWo0NRbbq7nk7DYW/zMxu6aGZV4mixDpYnKdpEzx8FFnnaZ0F/qrUbLm7KTV1ICtqQmrqG71sQmfqJxUY9Ao8WULLbl8sSWWL7V6T491cj1qWKQ2QETioTEyAhMSVpRShJ3wgxnoYAiSumZV17jqWJ8Ys5kjh2zy8CFLKs9hqfiS6FET4HPLVlhq4WJrDg5adsECawq02NsuMVU7B6YYgu/Y1hl0R5rSut7KAKCrSJUv5Uj4UQCTRmmh9msVSx0/YK2De6x08KhVpmakutKWXDBitmjUYn39luofkIaL2fSh/Ta7fbMNSYj87lt+3t72hlcJRGIb4cN34RYjQNlipa5YsfHpKduzd6899PBD9sSWLXbs6BEXMj35vL3h595gN954g61etULlpE0k+Ggtykb7uYYS7iJwcqBetIH/ODU4YEPf2UmwRoHrpWLNDh85bg898ojdfc93be+BfRL9SkzgqIoITJouqGB9AimdxusvutBWLl/upsFn7rzTfjBVtMTFl1p86VorJnukDsXOshP74PYKdpvAUpy2Slm2qNQVk6IHmG5Xr7hn32anloEhS48uUlwowg5aPZuzpiR6S2YHE50pD+PRoQtMzgzdN+KypMqQqDHFUFyNJJXkiJcF1OlJa44ftfbkmJeBrq14WTanJBe9IQwuYOHWmIiiPMSFlhwetvTCBRYfGLCW6tsBULmcVejflCTku118UZE5sykBMV0No1MxmU2tE+PWHBu3+vi4tWeLXraUTzovS4NJeorkkmuqi5zSfJ/FCspvYNiXkqQGBpVPXiaJ6KayxJNyVmMDajmcX7WRtBRTGQGu/ylv+ntjfAdMgLNq0Soz4zZ94pj1Hd1l/VNHlZloI+A36YURYBrZvDXzcoCpZzphxZkJFW1GAsXs//m937UB1ZX9cfmwCf5KVfWq1YSLw4dtr4C6b/9+F2YzqqsApLLBzGIYHZnHce2119jNN91kF150gS0cHbU0jKiyYkRxZL8zTJ4uBANMRRd35k8LMYGy42P1aigCBZmYmLCjR4/a8ePHbd++Q5KWO23n7j02W5KTg2cOwJUp4+58JM03siAN5ZjPZS2Xkf2qcrdminZMHv/0yEKbzg9aKdUr71sqWrZTWgDNYEe6QsGuQSpgxFMRgZexfhpREq0hT5xRmXYqJxUt018xJdCk1ZAJvG9VFjuZ/lakL5OtE3J+EgJNTB5vhx4LEZoBCyRsqyHFywhZR9Jf0omeGu5HhHKC61ek/NkZ0T1/gaaTURnyBUsVCpbMFUSHjB6HFihkWWhiRPZLaCi2mQNQKws07DPQHc4UM9FcSdmNdLb5aJryRIs1cBZltrQAk5inKbOgSY+BaBgXc6QUk6JBOplXlSVtpWaViN5BG6ro+q+lOqtRrCWJ3izPCrgCrWz2jgRAlgEblcF7EjAXRC/fO8Hzp7cCT19t0aiK2cs2XMja4sF+CaSc1dW+KTFMs9GwWTFdWenjSDW7AEa4gQc29SDwmw2gMRMZ+BgWw2+UeXDRhRfaIjE+H9pbKE2SVxuy1wRSlecBuQtPlemMgBVYXaQC2gioBw8etCNHjtiJEyesXMYQl9rWfaRqUmDEE6WfVWn6iFdHHI0Ap2Ob0SMaPqXKTOzcbbtEwBN9Qw7YKRE6E8/RqWUpNWRWdmyKCc4UFoiowVCtnWRZjUD6asw4dqeISr8jDo07JspN6h2Nj/YQVpxD62ps+mtR/RkVN6Njwrt3GH2S9aTXWNbBJJa2HAv2uIxjV0lCtURn1zRKj1286U10wdWktwGGwG7TQwISXUooYGHPVxLg8DG/yAcbFNmwron6k3PGUG9DTKI7YcxdhWVQxOcVVMs6F9hRf4CI+gNn1K6uASScqo6YxXtpaCeApdxVXZU/RBrQAavy0Hfs5ZYZ0JGUjcv8SatSKV0sxwQ8efD0OXurYz7pnK3zk5SFeRBql5iAfuWlF9pAQc+qbRNqc7SI74cWRdqLP2EB7IAD6kH5KBDXec4/BCjTj3PAizbul9k4MjxoSxYttuXSxkuXLnFB56OpKlYIMhueCbCstyfCNZGJgC3h3KhTiMa4uiDlhfcnIBgFRi3qekscqBckVKr2+c9/0e64/wGb7B+WPbjGZjLsEsj6dtmUyiMTtJxAqHRBihqMyJorRIfwFoCiwocywBYhxEQYGIQrDlhFnBQiQ63c4yvflIU/36JdRKXsMBqp0sKMPklOSC12G0GZsn28sKY0yAdVKGlGToBHETVOb4mysWwiK81AYzIkqmviImDakifsUwb1Gqt9OTrjCABIcxb4WUY2PXXxfMgvssaltTFhOFM74MQCLu+ygiHQSjAaCKVhvBH0JuWA/GKymLQMdYOVgDr6gkWcOG/0PjC+gETLylsviKH6q7OWGDtsDcULFo7Yb/7zX7fBoQFLY/7Q7kqFXhGKcNJ89P+FF6SvGpP2gig6cSBTBuUJg3IN8xHgYmeDF1ZE56U18mIMf0d//mlWEoLeHk8NDlgyiUyC+QEQO2D5oSP5UhzUlycZpa2I9OAnhaEBZiRZP/GFr9gH7vy8jcsuS628wIqSsvFsj5WYnKIKMT81nU1IaCkPAEUKSKsyIycCLXkrho7xbjn4XxngWKCCxS36qaPq4BKuWw2nqdKkkX2QQe/xjQFd8PKFbx0ofxhDduBsSiDQu4C001CaqjvQYZ4D2YQJMUhakoAWKqPUn89sQvQpP9/XinoIfZhJ0AIzyTWPGBnG9u8oiNYVMeU0E7h5VWnGAQP0Vhl5PivbmDqIBVxqARYYTdyhOrI0UcjUszRyADo0ozxS7zUxjC+foS14V3kzIVsqnz1g6yIz8yZUc8s3mTMwa7kTh8z2brfe+qz9yi+8yd70z35eJk+ONZPOsGE9RQi6JGyo3goADLI6zhS4Fz1H4ByZSB1w0r1O3g4AXWaR6MF8YH+RwAvUVye0++nBbVhHvVLiGIF3jou6kcBAAZLV9+3vXiNw7kQXAZj0oBJZTWx8972P2Z999FO2V/ZkfPk6q/QMWzvXL/WbtqokCPsB8BFeaotw9Xx0kpdaQy1TbLrUXP1yDji7nMG2NjRmTAjzz3AS9W7Ml8DovpLCAePcR7SUhk+WlmmBFcJarrRsBEZkOqmYTcRmva/YH4UZVE88YmiBfaeMQloQWvfDV1SQsIyACSSSmoGOArPypTxtJIweYl8B6IPnDuLbDLaoLK0MoCRPIuDSfaVNG7AvAF1B/vVv/aMMNDp/MZUXpqD7x4EeKusVbdVVPtb66DplVxWceuw9qySVtp5RnsyKY3fCvlbZMtNHrLWXvud99uoXXWW/9+vvs+ElSyRE0lZSyaTsQ586dVZ0xoRO8wK0QMBFWHIM6VpDzJ+S80qgSzHYqF6lEHgR4uikKUwQ3A5WHvOemgt6nwRCpCDRTniEUECBUJEE2bc/LXB5oypwnIvdTCEwEe9w+dLFlsfTnpq0dK1qPbrfpjdAnizqoiFR7UuvZZsmYrIFk3IoMmx3GTYtrkkq1HT0PaHkxcXkHbHNOvYhkiLmEoO+ynbYTI35rXFJE57nGWBOwwJsOqqZxyrJxDBkHPtSz1X1TlUqkXonVX8EJPXgD2eBj9BxbCr9Jrao0knoXTSgTDsFOTly3pjhhP+X5NOeSZhMTIq5k2WCMrP+65JWMj4EtnZODaIje2bFlGZbTiCOIN8OY5kztm8mL1tddWQSOiYLPUDUlw0+BH3VIyVmUDrSSG2ZAA1prXpZWkICA6nFzDKXfmq7uupAHUFvVmZIXo4bE2AKon1OwqR5YtzSsjXXLl9qL7/tpTa8YFRSGqmsYkI9l0FKV7iARjBVJCWhDfQCA2xpSg8AR7WqX0+r/bskdbA6fQVcsMU1eghaYmDOGfZnhpkj+ixBTM2bZw80XPR/QPzJxE7+Cs94Df2oCklC7jp01P7kg39n927Zbq3hJRZfuMJKsmPruR5ZYcE79ZlbKmSK1heBgRnqSs2uxKMcOO+aBN3/onydMPrHMREXYDvyytW6qJN6nd4PqTOhC8Cxy0uQDjyNupFrJdWM9GIXPjYlg/D1as2J7tpG+fJ0yI/QzdOj8nU9HX5xypA0kpinwq583D/5DKccmZvLMvCnhO59HznUGZQI6SmocAwGsJI3JjXLxniM/vkIoJifa2IDPawXHBlqNxhXDmYbJmZKo0wGPpmflAAZEQkqh3Za4+hOW5Sp2ztee4v9wute5c4WNKTDwduFrJUcKT5vwSt0pqAbLvzI7ak50j5PG6JXotdPj6cEvxhKghPVP9RvGy692Hplo9SnJWWZOY+O7BrfTlgRpoM6Qxvo6MOaamg6/dXkIYoB3IEQZzKtzsey9SwqnQ0q0t74kpANcXdbkrqTVeNlZX/26N2cOFjWXSetvMXBalgmeaTV2OxmGKuXrVUpWW++V1JFkkqRUae4JL61GCFjwguet871m23ok82U8g0x7p9T6kae0W+eCUeVR5FjOO++pyNAZ6EgvRVEQBVpBcHeJRe2LJs6M0c2g71NPSUZE7KbWU5Odx1RelfSml4IJB09H9ivMilidZWf2JDtjDmlvNibK161rJWteHSX1ccPWq5Tteuv2mi33narZXskTAR8utjcLpYgJT6lrX/U4Fg5U4xOzhyeUcJCvMAO81OdF/xt/edA7T6rJLGTSiL0w48/aX/x139vmw6NWV6OV2N0qc1m5HjJjGdGFaqN72Ah0eIyI7DPfPKHGs+DJ6081WAcXT76OSXhOv9zDWmGVyoJrXTDdwXS0pCYNGIUqel4WxaZzILBnowN9A1YLp2zqclZKzU6Ni61WhWYw3xNNZIkHB9TTmIEYnupTuTgx+45hUNIMgORcLI8UQjlikI4D78byZrVU2EHRL+qe9jCHP05B4zAKdpE16Nh5YbUNc6m7xPGfELvSuzKchqcoolAwSSi+w7EtZRfVnBOWj/9rONj1ti/ywqVabvp0nX2nnf8gl164RpPh+VBbHspnCOvQ3pB0P7EwzNKWNW0ezxDoCKE0x9xmkHspC1bvMwuXn2BFeScVCdnZLMBgtBhzRi/d5QLgGwvFPpaZeJLUiGFXFJJMrFJRjQujkXqToNUO2ue2BmFLcuZ6Myk7NB7IHWJWaKi0Pb85jND6VrJ1vZl7JY1S+3qnpTdqPjr12ywWxcN2YAaPqdGZZduNiWWWy+TD8Zrut1cT4RJL+x5Wk3JZpZNXVX0PL22ACZoBADik7mVHu+2JD3ZUIPlMA1JuDoz0zxt+nNVf8VwDAO7bq7AOKIf3Xn0AzNHg28SsHkGm9D5DjGqW1NmFPvPspdXBTroN3t8VSUAqmI2n55JVF6ZWttGpeeTR49YX3HC0icO2aUjvfaO219mV69eY3nJiJw4MK82YNUO82ipjoeorc9B8HY6LZ4tPAvAEuYh8mlTDXweyWQSXzAwYBsvvMgGs3KmZuWJs3BOBr53UxH1lPe16gW1iaKuCKB8gcSjVCvOhUtV7FiBNQCWflfZm2rXmmJVkZUASJU20iecqQQwiEwIAXZY0vualYstN37IHrvjI7b1Mx+x6wtxe8vV6+yixcNSk2olFgOiUhWRzD4I4IATaOVYMQnGQatzjnSlzSeKq/VubHfBiupvMeMrIccwKSdSkQ2MO8wkE1CZUQZQI7ByRLbBoHQJMfGIWU9Mnuez+ahNsCTr1R1OuqkaqiQb3lVFU+ZTMOeiKfuczYlbMnHaiZzlpEl6JqYte2LMmvt32wX9GXvHK2+1Wy5bL5OD4eyY96Ko6CTeDfrhF368AWqeKfxwGxojruaDNwq6FDUZAWUEFJOSUiy3Zi+qHbt22JGx41aRJGQ3wU4GKQs4kZmyq6AQTpOagO4cHA0fckRS0biAAEAS/RxVBzHDMYYkFKiqkoK1pKSVHAvmxcI0WTVGQR74CjXQyv6sPfrtr9jBHZutIGO4WDxhY1KxzYXL7cDYCavLJvSl3iq310dHPxB1QYLRVTQ45QhJ/HOcinSfceQadTtJrmBCcBpYVLRR2bBHJax1ToRepK/7Ki9qviM7u8UKYXn4/lVybG4BlLE+7PmE27nB1sV8oCcWfPkQN1JSkR10WG1AV16hWLH42JjFZk9Ytlm0d775dnvDa15maXotqCdaT8CXvNBRhVXhYjJd2D6UDfWee4CSTgg/e7YhvHFqoD2fReBVKhR+nT10n1OkgVR1Eb5m61YslJRdYaN5Ma6kW3+s5ovc0q2qiI36xWZV43RqkrBV0VznAqGPGgmgHDtCSgTWAFJG47DdpLoF8pici6ZUbZGvIKrlvXuOMri9ydByNaxpw8ZlBpP+ZkrT9qEP/W/7/vfvEUhjls1lLSUpxcfamDdLX2o0AECtIBZABbRRpK4wF35j1EMQzkM82UDQRP/rgqcxB9RwHtLDfpQdLRCy3VBLtmZTscVcAJkpPvFZNOADuWy+xq6KWYGM2U+MzrXrgDfY+dTb13DpWqpct9SsaD0xbvGp49Y4cdRe97Jb7K0//0ZLsyMJBaKkMiWEbzc12JKJliiJvqL2vHr8sOG5v3mm8CwA62Q+GU/76VH/BTJFR9SZGl7etcl2jUmi3nD9lTaQ7thAs2ydQ/stNz1jvSKyr5jN5HyKHXNB2VyjJrWHZGFwAFuUbif/qqAagSXMei1krKOwLCmNjSpwuu1Zsh4BLq8G6pXNhqqbaUxaMVuzHZXjVhrssfjS1dYZWGpHJyV1sots4/rrrK6WYnt3Zn+xnIZFhJU6IMfWJkNl5MSPGkB1VVm950IFYs4CwAuAEQhkfyKxfMGjrgSzR2lJfBFZFVyRiVJVrBMFmrqAWpW5xASkBj0ATdnTqi+bHftGd0qf4V3EZQuPSOXCTGInROUuiSibP88MtrbNVsblaFZlBkzbYH3a+ieOWOLIE5Y88YS96/W32L/8lXdbQc6vGkc1ywqs0noiKc0JX+NjpSWzM1ZQyiw0fa6BN0++Hf16NvFM4Vn0EvzwgSRdrpGywOOzy2VXffhjH7OPfembtnu6bkOXXGe1/sU2HgessuHo7xP6wgiRrLiEVFpaDSD17vMXBDxGl7yRlLpzmn4HKU5GeidNi0oSFZOWMzWGVC6mQyIv289mdK9kq0cX2hWr19nRx7dZ4/C4Xb58pS3ecKX97eZttuXIEcvm+Wid8hBomZXGiI3nq9Z0QvoxkNNxzL1uYHjZL+m2SsKZ/w6srOe757wDEyDN6IBnboGMVQcocxmoD0d/Zy55fnFQnbHXZc8yz4FZWzBGE7pJndekSRiE4HteuWrFepkbcuy42fi49VaP2Jtuvcre/OY325IlSyyTZlo5GUQ1Ont4pvs/rnDOABtV0SegoNKlwo6NT9of/sn/tO/8YKe1R1ZYz8qLrd47bEU9jsffkoRkT4BaW4SUw8BYPbv9EX1OgEAbTEqAikyB0HpZ11HdPZJMvVKlbMCbzOesXapYZWLSZytNN2ctt7TfCn0FGxketlW9i2xJz6hVJqu2ec8+2yPGYmdt8neAOviQ5tQlKCKydrhyqRs457pf0onPaNIxesRHEBWj5xzgnMsJjMlcYjiTUT+60LgXZihhivjbepSahqMH0TJB74SDnD5rBk5ZKqO8lUlMzl1aTMqXbgoVaYzDB8xOHLd+Pf+KGzbae3/xjT5DinxZoo8jx2wqnzH2NMHL/gII5xSwwpCIylCm7KJaxT9h9IVvfc/+9G8+YgfK8liXr7XkyBKrI8UETh/2FPHqnbTUKGpOUJGEZRsedjBxqnmDEwVeSae5GVCYAZWm9TTaNt2ZtUmpwWa1apViVeJITkh/n/WvWmbtAitG45ZPyKCuxq03OWBjk5K+fVkf+mSCsjMHMBFo4ZD5JKIITwdYQnTucot/0TOSmkyA8VlPMnlikoSk7f2rvIJ6B7DKMyzqnA/YkDiSmX1e3fCQicF6NiRtQLhAKMBaTWaAHNjS3u0yAQ7Z0kzKXn71FfaWf/ZGW7FskfJDk50EKILBGbH7+0zh6e79OMO5MwkkZqBhnPFySVcMeoBWrHfszz/8UbvjrnusGJMUHVrgNiPbptMJ7nSU1FB76SgJonssJXeJ1214B4y4wafpNRvW9plQeldMkGb1S6pkpbYabdGo5fpHTYLdsoNLLCfmmM6qDHnZjGrwpoBcaPe7w8KWb0ykqSs9GIQVwiqQtO3TATbAiN9IVcIpDYtk5ehADVoAc8cBQz5Iye4LMImnxlEHijQfqFFAkjI3ldlibIZBZwm2c9jWXtZyY0aWz7i1Jg5Y7MQBu6Anabdfe4X94u0vs0Vr1llVQoTZUZSByG4t1E/ZKqdT85ofzn7nxxvOqQ2r/9xb9dGYoOOMTSsOjs/YH3/gr+2+TU/4RhTs809nqYOVZyV9XK4wyhQQ7DYh6fpyCj3vE1V0DYeLSTlM9ujtH7bhBUts8VDBhof7bMHaNdYoDNrdPzhgO4+VrJkdliUre1ZSttys+cJJQJ5jRIxuNfKg0A4eOXhiAib+YMdyJwqh8cLvIP8oW/ddrzuE5a7OOQqslFsIcenqABEqfU0TIZDK8+Jt1dIB1L2q20Rd0092lSnjyIqOfLwu3WhZVun6B+8aVatOHrGGYmvqsK0THd76ipfYG1/K1uxDKqwgLaBjpjACGM268jkT0PppQqjzTz6cc6eLBnXHiK4aJIpUPOuXNu/YY//5f/xP27n/kPUODNiKVatscKjf6rWyL19hciFvY0N6CQVKpvtlZHflslkr5ArWk9NR5309PdbbU7B2b6+1CnkbVcMMF3qsmeux43LqvrHruH3p+0/IVOizqqQ2O2nXmFaXkVqV3Ytnz0Qc0qcPts7YfFcjsCviyUnFUYjOZUer8UVEr7OPrgFIAYB3o3OPAi2Ao+HD3F7kYcafE2S6EtrZUoBS3UUvQArt6GtlqADm5/u4s9JM9MRklSY9Ij0weEkm0OSYNaePW2tmzC5aNmLv/vnX2y1XbbTRXnYvV9ICOpuQMJc11EmpopkALvXQ39nC/9GAJUD6ADkiNpeuoBJ1Bjganbg98Mhj9l//9M9spli0jVdcYbe/6pW+mBHq1LqjYVAaew7TIJQ0SFPmHvDZnJzUN3sgMCOL0aeybLh8S/cbyrUtUBT67InZun1h0za7a/chi+WGBNaUpQUC1t622rOWzqStws5rklpIbyQd9it/SDufUie04VABqEAyHfWH1OQQARPnyc/1DEDmnje2jq5tSFUX2CKfIVluAhbopbcEXCgUpKqDVfky0dpp6BI4ZjOVug2KSVPyC/LVkqWLk75MPT47YbHytL3u5bfYW9/0et9pkG5WnFOf9a+8nDEoB4XwUxgknJ8tPP3dH28454ClspFK4wpSB8nLECx9q3d/57v213/ztw7aK6+80t7wpjdatn/QZis1tyXZdY+hSd6JiAyQYASWY7NywZfn6BjLqcHTUpEdvpWas1hVAJK6n0on7bvHx+yD937fJho5a8T7pUZlUrTrkjgllQpg9CpF5iyQA/9FZKHs4egSVOTyqHcAtnv3PEsBidzrHkPd+Qt04LGQFqddWKrcHBluhl4AyqWdjshhmBwfwDWV0mQUrEcMFhNQ46UZ60wctebRA5arztqy3oy9UbbqrTe+yC5ct84zY7jbiaVzlD6nP83hnAOWEBopAqwaWg2KZ8rmu9hiX/v6N+wjH/uYHTt23NZfttFuee3rbd0ll/kAAjtJs7cpLUhBKS1FdvVKA3pDhoaQxlO6susEV7bLiUvdk2esN2VHZCN/fuuT9vUt+20qs8BXRPBFloE+AXpiQtKaPRMEFE9fZXUOCREbj8D1MPsL0AbA8gT18/KcdpwfAg1OBkaz+EQ+8tQVPqpaDMikIL+m/NmLivcYPIAxkebxesVylUlLVaatOn7MksUJ62tX7PJVS+wtr3q53XrD9b4xM3XhS+Z8PgnrnKirPiDw0xzO6ceRkUOhocL/DjaaWP9QvXxxhYtLFi/xffr37ztou/fstfHpaYE0Z/0D/e7wOIAUsDGDrSWQKskwb1aph+TdNmvUJfXqMimkNvk8pcVbVq3Pyi6tWi6TskPHT9jxqRk1YMzqAkitxNJvpSgpRt+m9zpwlG3Hgkrv1BdQcJrm1L4i5XZe1z8fTKA8OtKf6eu4lL4Xi/s60eGUwO4n7NCFpA6BOoV36NBL6YQNjhPY06w8VblitaolpP4zE4fMxg5aqjxlw8m23Xbdlfar73ibXX/FZQK34E5/ImUF/NI+7HtAzxcjWE/vWr3wwzmTsAAzNIbDS7EbIKayZMYWKw1oIiy0qZmSfeNb37Yvfvkrtv/YYesdGrCXvfKVtmHj5T7S5RvMITGUUuQgANqQemhoH/pkZpc8Zx9Lz+r5eNMa7bBhBdMYHz4+bV96Ypfta6SsmJSTNy0Vy0yyTlEpSNZRUACoIxKcdMnF/9chXFGufh6FIPEpR9C+4f3AnP6/P0+IzpGuuJ9YFJ6mM6PoRJ6SrkldYg+DhBgHwLK3Qb1StqRs1MTRnTaquq1bvdJefuuL7SU3XGsLxdzyWIMkps+aMipt39FRl2gJpCt3fprDOQNsaJpTAUt0INBEypaNGLwfUFewtYrlhj34yCP2sc98wvYc2GtsknHlNdfYNdddZwuXLJFNiz3bDOnozwFL5IKuMg2RUZ9GW5JLdgIzwsoyO7ATc1nW2HdsUuLmsT0H7a4f7LLDVdnIhaU2zTbp6bISCoANw69BYjrwvMxkClA5Cxk7aN104J3wzNzRr4bAE9FEmAi43aueNoGuOSSrD7TI688wuaVRs1S9ap3ZKauMy/uvlKxPjuLVy0fs5qsvtxff8hJbtmK5GBE7V1VgAEDl8fV1Spg/+pGlG5zRE/oLnYE/veHcAtZVOS0kInUbzNuLE9Qq1xExkqB1aV70FR3jD2/aYl/86pfs3u9/3wGyau062yiH7ML1F1tPT58SoRuGhEghNA6RCccZqcFyqmmzHdnHmYKkC3tRsSCP1Q1SiwJtW+bCA1sP2P3bj9he67cpJn8np3SXeQ8hYdo8AmwkN0MdnN265yFrfswHKpL2ZAh6hmTng5YeAmQsZ2xK55tddCRN62WBtCQbdcZs6rjFZ8bdDOhRfS5avtSuXX+hvfbG623NmtVmMpt8gCHDHrshXcohjCpZ5cAUMGa2MZdD+cgr1ZE9H356wzmWsFGgkU8G6Em2Lsd0wxuzS3CeA8NH5dXf/Z3v2Ne/+U07cFgmQv+ArbvwQrtkw2W2es1a6+nrdb+IPlP6EZk006q33C7m6zF8dyuZlZsRT8mGRSorN0Sy0mYDh5l6zDbvOWz3P7nb9k6VrNnT62uZvExiCMwPysIVH2f3slFYZFW444/S2yBOA4zeZyxO8n5W7ukp71mQWseYwbb0QQ5F7EomRmbFpHSxxdnWqDjle1pl2cmxNG11AbZfTuT61Svsuss32NUbL7N1q1bYkMoKkxPC5iZy2MhbudC9Sr5wEtV1oCr9cBGD4Kfbij2HgPUmfVYhACE6irKKbDdfLJXsiSeflG37LZkKj9rM7KwtWLrYVq9da+suusguvuQSywM0lo3jZOj1hADqw44CSpKpgUrft89RSyK9+dQOy/Zlb+jYsZ179tj3n9hrW8aVe7bP90ugnziRlgmhZ3mUGEQokMCH1xU/V2zoWYaS0RLKl5UQ2NyoYQCDtON7ACzn5jtdfAUnq7IAe2HdYtWytWenzWYm5fHLPhVok5Ku/Xpn40Vr7ebrr7Irr9hoy9jOJ59R3ehhyZIzpXpKmD9H4P/EcE4B+2yDF8AlRPiBt4xzjr2K7p+YnrYHH37EvvzVr9rjWzYLTClbvHSZLVqyWMC92C5SHBga1MsCgqQk6eDlYzb4DC81Ip8DYkMzupD4QmAME0E2cblStf2zNbtnz5ht3XfIyjWZEmxdL9OC3s8K0/gkkR0ggJbUeR/QqsyJJh69jIAES1t0SY8xWgac+G4rq3170omg7hmRkuRnmRAfYOuUyladmZIpI23Q3dNq8UCPXbZ2lb3q1pfY2lXLbdmShZZMyy7Xu8yq4oMnnsl5wP5kw/xiVEpV/3AaARtN8tEHGianZ+yBhx6yO7/wOdu0eYulpfIHhoctXyjYypUr7aqrr7Vly1ZYVtcZ2cF6ZA0UE8CZoghYmQA+t5ZMvwFjPddnO6smE2G/Pfz4JpsoygGThGUIOZkvCOgwgUPUQSqicaJjWxahPHml76Ng+g2e6TdlFllGACeawNiuzFpLgKwXZ60tbz4jxsiUKvLzmpYSxtYuX2K3vfhGu+3mG2zJ6Ii8/Y5rCD4FCj49b3JV2kDyzHCFv8925/+M8IIB7ClBJWJWEzsmMtqF2UUhiTVJtOMnTthjmzbZp++803ZJpefyeUlkScJ40hYsWGwXX3yRXSh7d9myZZbJClKqor+vxszJhGBAgm81hCmLCZtpxa0xuNimam0bl9nx6BPbbMuuvb4/bbR5Mp9cAiZYrD5xRb/wxtNxScZ2CbvDu9J86yClHxMo6YpqFGesOiXHqVm1gsDXxFaVtBzJZGxF34BtvOxSu+3WW+yKyy+zbEZ2OF+yEfDRIjBHsE11KiZzCa7/GG79PxuWZw8vWMB67AYaCpuPIVpWArD+ilCs1u3hxx5z52zP7j02NT0ru5c5ptizHeuTYzYyMmoLFi6wkdFRGxwasUJPjw9KRNviEFluXZTxmZA0bUq9T9catn3/Qdu0fZdNV2pWEZMg19gOM4h8RTw+5VOpj4uxij5RnR0DfWOLWk0AZfpg3Rdh5sUXBYnR0QGVZ7DPLpCHf8Ul6239ujU2SP+pasd8XuY0qEV8NQH2DLPVfMZaF56RlD155WcvnFvAPteUESN0G9AsAqhLGhJTI7LcGanrTouecHtX4Dk+NmaPSp3vkmQ8duyoHThwwCYnp3yzXarIiJkDHikrEwLgpjNZH2ErCChDksQx2Z51ZcN3vOgqYt/+/UeP24mpmQDWeYBlWyDK1ZDlwgfpGERl0V9cErJXzLCgv9+Ge3ts4WC/LRoetLUrl9s1V10uxhlSOqqN3qnH0SKMuel9H4aNYMgZdnCIc0HlgTRMD/5ZDecYsFHSp8sDGrt76rdOu49X730yiqShyHopVDujQQCX2Vw+sVvnXA82q4Rbve3bl+/bJ+AeF9hkPhw/PmazUvUlOTnsf0tvA/MYGOql4581UEk+WSnHjO7gmtJjkSAf2Oj4BsayJRVTMg/4ql9aMSvbl1liCXnu2ULeBnsF0L5+Gyj02Gj/oC2WRF+yYIEtXbRAZonKiURGMzgzNgVyNgBRuZHc3b9QY+DLdeZYBcg6kPU69z3MnfzshXMPWE9dTQDYoDRe7PwsIX73Gek/TsJ5uBiCng9/esSfCY5IeIq0eYhAYrqn33Rt0TtAd9fE+KRNTk0JsCWZlRUr8xFgAbYu1c21cnXWyo0pFLM7eC1JWrq02BYfCc/826wkbgGJLADzZe6cwJpPZ6wnnbeebMH6e3sV+y0nie31CIWL/gtHHDA/iil0rEl58GWbUDdcQJFHf5SDMTtqGtQ/le1WmBCq+TMZzr1JAGEBXDcbDpGNyc6C3pnv9/WopCXdUWFysYK/y8nJd7lGA3JKGxLm0pbw8sb1dJSHTpmIjXCju2suL13QIzq2ZWLUfYi45Xaqrul9+keR8NGaLjbiZdiTL3G7NhaqowkmMXbC8HX9epaMHGY675aDI+UAjiwS1NN+zvYCyZby4BGe6mLcQc2rnPLbr3Yf8gcUopd+BsM5d7qi5KPuFn7Pv0bkd3QfyYhdGqRRN/hp9DtqrACw+QEA+ruoet3kI2xIWYDnWfIqR/LTCT9j5MOkGUYvdcrrPMJNv98998CNgLiT1+IVcYUMCZwjUOf1CDeZ1BOiGMh/h64xkknrQpbtrZnlMg/jHiks5sM8iRwCvwnRCz974ZwCNgIiR2K0QzMx+tpItDwDoHI9zIz3VvP7Zw7de3r+lMfmQK48sU11n5UKAIk7DmjyC7884p2z4VocW7UbyN3hECWncs8Fl7rdc39AEJx7IQCSY0idYzfvbowCX9nhy0f+XnQTHBLIL0W5dd6VuLBn9D5ahL+fxXDOAEuygDAs4FMb0LkuiedAdTHWCX2nOo/AGzrf1cwOqrOFqLg8G512TxgzBzJIO1KAEaSPoxleafp0deYmicoDbyCRAVa0rDxATNe7ZeleDGXuFgpJyWW/pfSJStGfQf2HcBJSc0ce6R6xHmBgNYDoonKr2P79KoAaBX+YGEwJ8iMER+xnM5xbCasIaAGrr8oUlfk6SrUqr1z2K536TCyJgI30Q46crTnmrlJkfswvup/TrEHGBfVMejwY0sWZAYwhnZMKOgA2SNjwdPcZkoyycDDGvBeB2M3F55giLece1YsURbzpDpN3GftN/ReyC8e0nEGZEkh4lvpk43K+GDSQrZ2TM+cMEgWdRq8STtbhZy8IsO4pnDWEm6eS53RizU8gOvdnBETsSFfLUqV79h+wb3zzm/bIo4/ayMiI3fbSl9qLrr/OMkg+FYMZVzRsZM/OD37lKSU9/QLNStTTAEynmAXes6C0Q6q8E2AcyUl+BSh381FwGe/J6+joE+h1SurIcW5xzmQ9HCiCpxYS9uC+WBQhMzedscyOzozbFx/4rj384IPWX+ixV976Urv2iqssz/xgSdz5S8spoSehSC3o8Aoh3H9qiO4/NZztjWcKZ0vx9PTml8zP5z9w9mIpnC2lU0Pi/e//w3lLZHgpIk+IQQ6Fl6Mk5wvlOWdJMXqLBuUqw5T0M6KWmSn1uS991T7y6Tts/5Gj9sTOXT7RZP2lG6y3p8cnV7O0hC+vBO9c/5QY6ZwicaOs/VK46+BUDF1eUdRvSWykNmr/1L+Tz1FCAAtAg6oN70bphgO/w1VAyDTTpCLfk/W9sKi9CstjYeO4bgyvKYTysR2nd2fF2va9hx+1f/jIHbbl8a12cM8hmzwxaRetvdBGhwfdVDq5tDzEk0YBJgsZ6dTD/HzmXZ5/UYFiOb/MeyIKXCGGHCI2PhlJaX5qXIvC/PNTn9GfbmIunfJQN3g5unQND5Dz6eGpV6DKWUKUSHAboqOPl+sOSYXkTn1mfqTE2It8j4kPZGzfsd37P/sGBiyby9uRo0ft0OHDXu5k0pvBTQcA5nmczOSsgVLOZ5a5ks0RI4QzJROehwgANUqBsp8W5l/g/Cm/9V43RrfnR9J0i0hR/p3vUHjgkEA6PmUjw6OiRc527Nhp4xMTKCWZS9I4UeG6JyGdk8czXTkZQj2iMP/JM0VoHWK3jU+LPBOFk6k+fYjS9hCdzHs5CIGonM821acANmQTZUacKzjSBJY5JRNFV3XhXgTUUEldpwGVCKqeb3LxoQkkR7lUsnQ6JSC3rFapejK0tx+RrpxEkQPBf3Z/zHskuuyg9dvhBlpgfiTw2vzA75PXwntRPP3ZU4InF9J8poDFNbefln6zJD10pYX3a7Wq2/hIVUwntoY/vWQhBN3grXN6/t3fQR9Gb4c2mEule3Ly+mlR5XFhJAETjqEd59pSYV6Oc+FkfqdFPRzaVP9hm3WjL+TU0Se2d/9+mCDARlnMD/OyJh9sOFjfozKYH8nQCxUqHQE3FFBHlZrJKmwQDHh9CFUNRCNm6IjHNtSj/gVR/fOo33PnnjZpddPztFVNihaKFyKX/QV/4inhJHCfepeaPl2IinMy6JeXK7pKCqFZoyYId0QLUdjnqOpZX44uGjJrAEnBM6Hbrfue7gUTxl/WRW4Ionow5ODJdNOeeyhE3XCARL/nx+ilueOZov475VwxIi7XzhKickWlOZmG/1JQAoBTMYC0e1T6c+0x/51uneeleEroAvYMYd6LztVzsRtAH5FM5gV/Stf8Hf2jcN5SepCvafM7wxcA9duXUdO140npCgzh6em/iGinR+55tvrzzPzK3NHPny746zCVv+LRLz7dy93bzhR+Pu9BL1M4cD90rIXG8G46Ag4flSTQhaXoy8b1B0DZbpMksbnBb/RZTM/G20FSGe70CnM5Yo6TMYTTrypCfy90AE0ElDnAEAO3nyHqv+6Rw/xASbo1mve8/zo1UO+uT+Jc2j26u6EQZeE35mHujGkpdF+b9/D8l4ieoR47PQaUnRIhpPdR+jl5sgkxgKRjPm588ZkSNpi4ojTozuI3/oUsBl0jHd7U0eOpIaQJIHScy0MhenTetfnx1HCmJ4jPIigfSOOOaLe+UJ6y8G2D6JpHrgl44VOm3fd1EnapISkADbzNGZghZHbeBs/ucPk7ZMi5nvYj2oi0VQZudfN65gDg9BeVU9E3X6a8igFQUToc50cC+YRU+P9kpCW8NU6LhO77ftCboRoe5+5FwV/jv+61KIkzBCUThSiR06JeRlIQ2Y2EySREuqt8+3ZV1rfZgRhR1Hs0BTtYx30qoNnU9LS/B11wcpAqdOSzILDVUPo8dDrhYENnxQAKn7GlX6eTKAr+m+c8ct6N0b2nPt2NZw9+lyLNS4dyzpXH82L4VWX0qN/dF1ipy9IZD0i68LbaLzyBeQTzMp8BaVcoFFwWdD+wPi+E9NjCNGoyLws/PYT7T4lKkxClFkyoqH1C2U9vu4he3g5z8WQaTwXt/PjUwFXPR2VBkD9FmM/9VibPIriyJtSZIR9VEPRwLlBCZu8oFyVZC8V2j3X9ZlXqTKVsR8fH7ciJE3Z4bMyOTU7YtByqmsSEE0HPlpEaKg6rXtn+nSmBJE3xfPhUzyaTsunodvSLlIGTQKUae/0rLZgjYgQ+mEy645NTdnx8wg4dPWpHVYZZZmLp+YbKTZvzfJXf1IfyKA1WMYS9a3mAeuogh0fiUCnrJ++6ujabLVV8+bTTQBeI9O1Pz5bt8LEx23/4iB1U3Lv/oLz+wzY1O6O6NwMje3n1AvVByjrjqQxKO6h+uvvUTDpix3KOhIVnKZoXQCF8CVs/dL1arVuNgZeaTKm5pIOa5/1As5h/CYdzGAk6UH+noa7OyMk7OHbMdh3Yb0/u3m1bd+20vYcO2YmZaSvWlb6eZbZaVeX0D1PrvfBtCdbDRSzP/+EsFIKUFVQouiWbrFLmNnVRGZz+amBoQhoV5TMrnMwWy1bneejDw/pHGh13PM8cYqqo58yz7smqgFFZCOwawpA36psuqe07d9jx48ft6LFjtmfvHpuembFKueLqfnBgwBYuXGhLliy1xQsX2IqlS2xoeNjXU1XV0v/1j/+bffPbd1sul3emWLxggf3ae99rt958o6+D8o4tJJEalNWhXhb9Y4I2y1rGxBxjJ8Zs3/79oRtIDIK918TD1ju9vb22ds1q3xKdvt1VK1daf3+/9++68FYeka3s8NFF7Gj2+RJSvdeCzefw1Fk6rSRF3EBMVvAeFWPs2bvXdu/aZQcO7rfJiQmnGZ386WzGRhctsNVr1/hGbMsXL7FhMWlaeWRSrCQIdeOvXK3Y33/qM/Z3n/6c78LI+i/Whf37P/xDXyUr/1TFwb5FSkuYsCxIAmHL1q22UwBjZcI1117t+WTZGA5BIhqwqyOB5gPAKpozB0PTx46P2c59e23X/r2i3Q47IkariMHpQmT65OjoqNK7wGkG/ZYsWuzXYQicY/dFFPlyOszt3+AFOkSkjTJDELAihPzBIMwCzGuNmk1MTDr9JkSzQ4cOOuPShcm0zeuvvc4uWLdWQEV4kRZ1gJmV12nBAetLh1Vwhk1T6ZQ3AhWmMnXF2WrVNm/ebD9QfHzTJtu1e5dXpNEUlHWfvfIpOJyNdMrJJuvv67X1F11k16owV119je8B+1/++I/t3nvvF8EzInBDgB21XxdgbxFgaTRXnjq243xgTUBVrZFSMMcjjz1m33/wQXtCjYZ5Qb4M7wJWaAYQ6TbDsWARIkTfuGGjXXftNXbxhRd6eXwESQ1IvciHQzhyIgLpnv5X3RUpiwA7PVuzhx991J54Yqvyf8D2i1nIkG45uqP4Co5La3pC9DZzbft7e+zKyy+3G6691l6kui9cMOL05XNLcA7L0j9yx2ftw5+8w7fypO70Hvz7PxBgXyTAiqyOCyVLPHj4sH3u85/35e7Hjx8Vw2fsphtfZL/0rl+yNatXqTxtnwIJ0agK9EBfAJh9Bw44zb5373322JbNVpRWRAhgjuEYN8WwtFnU/409vWrVai//ddddZ+sEpKzqCjjd6OGo98X2zuwsMQJ8lFNEcMC6VBeT1SWkjowdsQcfftC2bNnijMKEei+j3ikVizYgpr5y4+X2R3/4B9aTywWDR++fDbCJP3r/+9/v+68qFTLFQeJDDaQKKFF137r7Hrvzzs/a3Xd/xxcApiSFUO+sN3LpRCOrhVm6ks8VJBWSkro1Ne5B27Z9p01MTVu+p882b3nCie8jUipLr2y2q6+60lauWKYSosBhFElMGVvYWKiSx8Ukn1VjfeFLX7Zde/a6WlHGrkbDeqe4AJoLy5/V+KzVAnQsj3nyySdtqxoL5uNDHD09vS6RqSvgdKmkerjzp2sOVpCqFmmI6keOnbAvfeUr9vFPfNIefexxnwTOTors3A04oQH5+yZ1lEVpZsQsFPHA/gO29YknHEgrVqywQk/eYpIe5IG2eHzLVtv0xJMOZK+7Xrr1lltsxbIlKqOSVcB8OSj6f/ozn7Evfe1rkvrKS+llMkkrldie9ApbunSpv++rJ5QGIEHbzUjdPvHkdvvUHXfa577wRbXjUTcRoFtcTAZYOfqHT7ptyW/KjjTftGmz2m6Hnk/a8PCI9fKRE9EOnxhthnDySUt6IWIsgIq0xVaeLdXsW9+5xz72yU/4nmm7du9xSU96qVTG6c4Xe3K5rG1XPm/8uTdIQxac/s4QgSueEhyw5EPkIaStTsR5LduqBv/CF79iX/3a18XZJ0SobKiwCsraKhLnOewqKkrvYgt1qjQAJcOe2H279u6z/QcP+W4u2JQAiM7znkLerhbRVwiwqDWXUSSkyqCJv/6Nb9onPvVp+4FAV5GUlxjwCmOj8hjEhggQz0GnsokSofNd+SPJUUW7RawTY+O2aPEiEX/YK+t9w6IwtiQ9GF4miK1S1GWDbdn6pH3ms5+zr379LknZWU8vpfoDSoDE+jCWkLPKFRq4HQYgaHiAJSCyugHfAEnV29undzFvgsO6SRL7sc1POGARJDx/26232rKli7sAaMv0OSCwfcHuue8+K6n+OHDYvLVq2S64cJ3deONNNjw4qHdVfsAkzYSQmS1XZXp9xz7+yU+LMbaI8VVlOYAwKxhwzaQyV6s10Y7J67quNEifsgGmlBgfM2Lvvv02LUZdvGChm3y0rUtB0gEHanv3S5QyuyUiaI4cn7BPfeZO++JXvipGOeL1wYZGGlNGBCL5sNiSbfmXL1tqr33t6yTsMsgNx6JLWH6cFhyw3MB+g+DAjrDlya12hzj7wYcesSKffFRD+D09U1MlKeDoyKhz+JLFS311akacEz7gK6dApaSBaVgk+NT0jE1Pz841KHZkDxJWgF21YnlQORRWRykou+OzX7BPfvrTLpFZf5URhzcElLoACrByUh/kv2zpMlswukAqv19li9m01AwNA1ipF42J2XDkyBErzhZ9/wJsXeGhWyesAkiEGoMGMdv0g81q7E/a/Q884ADjNr0d2NIwCMvKl8nkWCObb9nS5ZKKK6xPwKnKaZqV5HOb2vOOeR1f8uKXSLr3iDlgSaR3U0B6wjYJsP6tBpUR7xcJu1yAbTRkBh09Zh/92Cfs7nu+645JUvWpCPzMVegt5Oztv/g227DhUjdxUOduwsFMKuOdn/u8ferTd9hO2dvJtJhMYEVwtNU2yNbeQp8tlZ9x8UUX27o1a21wcEhXGYEsO3jpuYE+ALImR2+vbPZauSz/YI3btdQr+rAHwVeOSFiQ9+Fjx+0jH/+E+yqTMt3QZAg4jjA6JhNaCHoMjwzLdl1nb3nLW+3CC9Z5ngQ9qvLo76l4DTYs0spXo/LZSlkDx48f8wb7+l13+e9EovsZd14Qh18gmxCjf/GSJR57pWorqtC01DA2yuOyNx99/HHf55V3IGaGrx1KIqFTaDi+o7pYtt2vv/fddstNN6rB+NhGUC/f/t6D9sEP/YMcmwO+SQbdPnzVBQKNCpxXX321XXbpZTYqaTkyNOKOy4zy4lu2O/futkcffUxSdbdLbQpABfmMPA7D7a94ub39rW8VyIdcstE5AIHcDFLABAIo98jma6gwvq5LlKtIGg1IwmzYuMGuuupqWyPnanBg0NJMnhGDTM/O2M7dO2U6PGo7tm+zorxuFim+5vZX2s+/6U1WYGMQl7Cy3Wpl+8SnP2v/+IlPuy3pbKPG/IN/++/sRdddY2PSBn/34Q/bPd+71wuHp84WSnxoL51K2L/8579qN+i5nBw9nB++jg7Q4jI57rjz8/b3//iPVkZyqr4xpY/AaOj+mmXL7PL16wX0DbZ69Wp3TGHqGTnO+Ak41I8/vsl27NzpQgJnkrZjz9mBnpy98uUvs59/85tkoxcEahgFs1FtpghDTM2W7ZOf+ax9Xuab+wG6hhbCScSEWSPAX331VS5R8XP6ZCat0PmCkRHLqOyIS4QWgeMZ8Ko2lVEIGF3VqFJwyWc//wX78D/8gxMK4xgp0FAF9KT91m/+ll1zzdU2NKTGEpfB1Y7KbqDwqOEde/bYpz//OXvs0U2+0I5uLrq7Uvm0iFmytFpphTzTX3vnO+3WF9/sErajQm+T+v7Pf/Jntm3HLp92SEXodsLAuOnGG+11r3+dpNsy6+vrE0HFvVQLaakyNEVYPs1+UObH17/+dfvWN7/tW9Gj6rCHMeJZLPiWX/gF+7lXv8pyAgBTA1PJQNzJqRnZi5+zL371a3ZiYkp2Z8Hn7rL58EB/n71PzHWVbO4epcEScarNjomuewCj6EdvwpgYZ2J8wnevWSFJPDDQ7w1AHjhqFaX50U/fKcfrc+7lNwVGzIc/+W//TQ243P7iL/7C7v3ud12F0jPD3rioVBj23/3bf203X3eFQMTuhKH+NTFTQtrt4cc22V9+8ENi2n2+NROreWeLM5JmebtZQuE1t73M1sqe7pGGcGePBhPdMQfQJGiwo2Mn7Jvf+Y6DbkztyHW+O1Etzvoq4F9733vsxTdc7wIGsOPP1MSw5VrT3/n4Jz9lJdUFh5xeDrZqIq9XSFBgp6KRvWdE+ZK3n0M//Yfk5ghdvWxnCIn3/9Efvd+NaKkdvqu6fdde+7jsxhOTky5hkIaVclEAHbDf+Ze/LbX1YhvoK6ixJXnk9bLNTkoFQ1oh0xmxwosdXTBqK1avtMkTE3bs8BFXk9hFlZY4N4Nn3bB+qbYbJa1WiPNRAePi9C/I7rnnvvvBoGUFWL7BJfFhr375y+297/4lqcwlkixp2WFSWaodXisWFPkyRwHOXyhVc/UVV+pawn4g9Y4aT4mjcVpmBWCIedmll9iwgMROgpVSxRlt67bt9tkvfMmOqdGyfIWGPtVmXQ2ctd/57X9ht992qyQlk87RNvQQUHcVVM/hMUsWWkF1XzA85Kp9ZHhwbtskyANoaQ4GTcjrMZkF9DPTSoNDQ25mfO/ee2UKfUpgL4gJQrOhSmHO3/9Xv+8mVE7cDiM7ByjQFVSU3fqlr3zNvv/wo767DTZvGAZPSjK+1N719rcIrMutT6YU30zwpWQqO4AiH0ku4UdmWl+PXXLZZbZEbfLI44/59vMsi+8RaKenJlSHjq2/6EI3dWjP6ZlZPZMTbvbYx4Sbw0ePusmTFj7qEkyDksa//M632y//0jvULjI9lB8SmwWdKdpP5fcIWKlMdDxL4FmHM6IfE+77stvovsJ+gUNQp3jY73j72+2lL32pdz2wpSXGN/1+JE70JtGzGP9wTV6S4yLZJ29/21vtmiuvdGkpVLgaoXOZ97Gbg8dKMWIuGel+wdPHLvI5B0p2w2Ub7DWvfa0tWrTQAYDTQD5IK7dTobze9yUwStfLoEZ805veaO9597t1XVJMgEI90cTbd+ywhx95RNK35L/Jj66me8Uoe/ftdYDT2MReNdSvvO+99tKX3KJncSipX8qZwaWT3qeHgnJxpCyUiYjzglrlGZyIOUfCSUXOwTHkOl11d9xxhzTD1yTNsccFVJhAzy9aOGq/qjLc+KLrbLAvHRoXkc5DOocR6aN96NFHZDq1bGJyQoxV8Pa59cUvtrf/wlts8dCo707TVD0pj6NVRfABGepKuUUzTCC0LCoDp9SZWe3EknjyZed0ug/BB6YEmg6f5r777/duK2hAzwjPDg8N2+/8zu/YG9UOtAEOGp+t4pzgjOJ1CfXw+AzBcUZXEV0hDAI8/OjD7jVjM7rBrERuuuFGu+2lt7kYB2RICDGa20/cjwIfkaCw2FNuQqjhL7/kQnvNq263pYsXO2Cx9yggjgJED4a7QCzi7Ny5WzbwuKeFmYITg3f9hjf8nByEC5Vm0wHjqgYC+5vzgsqHmcJ4Pd4vqui1r3mtPNDXel8xEgRnATX/wIMPOkjInU3X6LLasWunS4dgy/O9g6bdfPNN9nJJd0CFM0maKkSQ7IBGdAjgAwMBrPwO9QrX+T9yUPxR/Uf9oKM7u6oF5RuT/Y+thymhKuqxlg0N9jvTv/ZVr5T0xlkNmsW9dZhG707RbrKd6XIkF6ThjGxoBMabXvd6WyTpHZNW4YvgOFQIA8qICYCqYg8GRjDZg2ZCzvE/fuSj9u///X+wSqVqdTld/ZLYKrDszqxAOORp0A6AFd8HRwpNFphIuPBymWPm2muukTZgMIbBHaQn9KGXR4QAO1F8lsGHZt1L1jsnxk+4s5KNPHI1Ht1AN910kxwISQI9h+Qis2hUJbSG/uNI0D0VycGM2GfE5pKLLrANMvaxuVjDFDgwocZHUtI7kLCpyRnbvHmrfI/AFDQaRNkoB+GKy6/w54JED3/BiQoNFrKeK4CelcrJpGQX1qxQSNmrX/Uq65fDBKDoJMdR2L1nt1T/cX+LbrJ9cvDGpybd26U/me47bNWXvezlboIAuNDZDmCYwAJYKXsgNjTxRuiGCLyUhwbybiP+um1Dz0AE7vCcgl5n5KeGOhedFo6O2Btks7/kphuskFXdoYEe4+lGg481SUKqLsdlwmwXsxWrZUnIIGwwy1Dd7N/FFkp8TcLhpPPQBRa6J/lyjQ+1C1DH5TR7d9SXv+K2KRvypdhvV+1B9xsePT0ZaFzvTpQGQIPQV8xuO5QMpmZ+xNDgkD8LuJnkw9E1M8xO3jD+6aFLhqcLDlgkKoEZ7+6kqHCeoBJYq0KuWrHSwYJ9SDcHUgzwzmFkjuABLAAJUNIT0FLhcXQ2XHaJJETO8tmc23s+vc4bWI2orGalno8dG1O+cH/w2jEJbr75ZuuVPakMvT4edT+cd/ONCsKLNAbP6jRIQ3Pi3XD9i/w2ZaVuM7K9tsmOBLzECTUWzmJKpgwqkv7TjRs32HI5eAQkHmmG2Vd6R9Ke7wrAVBHoIgBGITqN7hHCtfCbctDgNKCbK8o36owHFK+VY/jq218hMyzr9fItOFUl2BRmp/6IBwZmmFeBpoThGHLNi9ZXidFpYKeDyumCRRHmoRje1QVgdW/3gQP20U990gcoaAu6BmFKzDs05003vMh+5b3vsUvXX6L3gxmE1CSdLYygdd+h/LT/pZdcYkukVQGpP9clBkdo5oQIl36o4Fv6w6mEo8ePuYFPibiOUb1i+Yq5vjcHiiKcFzLsZjoHXpwvQEKhMBvCOHRalV6zcpV3Q/lHjPUkAADcvEMyZUkVBhWY2OEp6T6zl9asloSgkUQEGsjLoftecf1xHq4oHRGCMzcWdM7XEZWd7LmsXX75RhFTUlllIVDcQ3IG6XsFMJNqdAYngi2P9Grb5VdslIdd8Lzc/OmqNOqbkFaAcJQ9ClGjRAD16CUihPKeaipwDM8RuEfs7++z1732NfbqV9/ufa7uqPCsHED3rhV4g6QA3/j4RHB+1E5IvawADp0uuvAC+i31nojAe7wq8PEOTraDVW3Anrh/83d/Z1/9xje8HxubHpsVsBYkYF7zytvl8L7bLr7gApe0pA0I8SVwKA8cOOjdYAgpAubNlVdcYX30dytff055ce6ahYcoS7cuP0zwJojCtBqNgEpBdeJIjEotBRWu66gIAZCG80CGnJ5MAgqGg/4AWQCRJIY8dxqCbpoINDROpBoYrZqTMuJegNMrGymfz3uSpDq31ITf+i/K1qvNj+hCeMAPEEm4tX6l1SNHxM0aGf2YQaheiE85fItLJUBDMDcVCdLX169jsNOxJ70unnZQp9iC1DGqQwS8MwfuhTIRyBO6wERIc2qDVmGy0Gtld77qVa8OgyGqHD01zUbNGReGJ5AlabFeriiQefdXtxxIueGRETF83uvvs9EIKitCApahDgiHBx562D7y0Y/ZY489HvLSdbrJ0ICDcv7eJP/hbW/5Z7Z8ySLd475e1XOYZNCdSB81JgriA/pmpRkXji6QoKI82NrQD+7uUiEq/NPS68zBa+gi238GUR8lGI0E0SjRHE2IApghuFON4JmHU0rlhfLfXRtPtYTraGCIybukyXkklUiABncw6RrloOLstcUjEJq8HRQS/12LsPtuCF5uigRFFUI6jCyFRvS8XaorCRqONMXxxKjeHP1zTHrWex2UlJq8W0UKoveRWqigM4SnAy13ovs0IqYHa7p8wrYu08E+PDJqr3jF7TYw0KOsREsxN/TCd8Cu9deVvYrs585s3ucZRvSoIwAmsHs3a+nox/Vyq93ob4cCzJX4yle/bv/7f3/QnpRphN9ADLOoYrZsyWJ759vfZq9/zatswXCPS3bQAGCRVwgd2kX/FClUiE5LaK32pSmCtuOp8N6PGkjTsyIAKirv3U4qDd0XcD2qyzcRFoUgIsCLuPlMwSuh9+l2ChQ2JyIEjQCBNJ0fkNwwQlhhG2Z9uYoWoUkB6dZCCkJ4pX0S6PNCtyKUG9ACjm72no5LUeqltCGsmy9KzgmrczrwWZYcmTXMKCN4zwaJO0MoRon+KMHLIWmuVqSbh/rgCNHl9vW77pL0E50l3bnvu5Arf1Q1+VMXah/aIi6QYmdK5VIvXfduI5UR3qRDX4lA4DBZW6fsYs6Emg/LDGDVMt10grUcLIFM5VghsP6b/9/v260vucmGhwoONO+39Wrrv6j+OngriF5RjxI0h348QVncjJw7dkXMGZpufni6214GuIUjQ480KpmSOXupEuleUj30HBsK831YPcx/iPmzBd2nAehtAGP7Dx6UYzPJDbezyBnQ0zVCUjCLSx/9Q7LSuU/ekURKpYMdFNXGr1Ko00KQyLquB5S9wA9wZZ8fPeJbazqjqTzYXj1y5iAk1aDB8NCpP0zFxJDDhw91QQuDdOvqZSRy3o3PIVCvqBuQaXY4LKRLJz3D4l/+yldFJ2k/XXaBrowihy/sfeCP+/tMgGGbI/ZLQNhw7cTYCStV5CBnk9bUg5gddF3NVpr2lx/8oH3wbz8kGqNh1EbKCOeopePll11q//e/+dd24bo11t+TcdA5I59Sz/AjSFaCjjzQfSgAM4CTes6d+92nD6FmJ4+nB8rjCdHGixYu9EkJqEK6IViCvWfPbu8gptOXRLK5jAPOQUHjnyHwnGtM3acjmt9MDaSfkKE+OstZi8+3ZEcXjKCp3FEYGh70SS2R9CbfJ7c+KYIiGXVBksSJohaMJCzSf37A/mRjYsyBqBwzM0W7l7kBYjZ6O5CwOAJMmkGC0f70JAwrIsnpsCf9zZt/IGds0t/x/OA8Dzp38HR/PocAA5AX9iKmFz0iMAldaZT9o5/4hH3mzjvdY6evk6FZ/5qN7iHNyBoTBcd2gfyDXtn6lIleAexIJp488vjjxuehK9i9YsbdEhp/+uf/0z77hX+SaRBmdtHOzOmlz+HmF73IfvM3ft0/CdqTC4Mtibjai66JucpyDLkHGML/0NpLo/JxO9zhlDcRfm4aeoiOzy24hCUxCMEICx3DrCAgO+yh7du3e3dXOpMKhNMd+uCwhbx0p+fPb0WkQjRicuTYcdu2Y7uPMeOBA1i6XhYsWOBT1qgLc2OZ7c5ICuYCniwS8YEHHrBZecAhQSEb0NBoFMRLczJAtugvMFUozrZt23xuKnazbvm1/t4+W71ylXcTsf8aXXeMDtHYPIeHDLPs27tX2YZO70iCeCL+u/vzOQTyCc4rdA5qHk2HCUY32/jEpM/p+MrXvi7TSFqNCS4uhVVg/cPcClK/45NHqItvJqd3YUamgn7nu9+1spi9puc2bdtqH/roP9pdd3/b4jIZmElHevRv9/X02Stf9nL75Xe+yy5Yvcrt1JZ7/cKFzyZXfZ3U/t/cIQrOzF1a+Dnt4z/80jwynTx7rgEGcI5G0jCefdFFF7kEouKorLGxMfvWt7/lHBuVE2lAoSDyKUHlmV8Xys5kkPu+f7/PrXVDXX+oe+zgtWvXdtMynxt76SXr3RwAF0hZ4pbNm+27InyVDTdOCXppfmbdwCXK5Q6WCnDw0EH78pe/bFNTU54eo1dokMWLFtnKlSuchES0y5rVq12dYoFBeGagfU2qmW8muBnjgO1mqnORyOv4XEKoY5imB4NSZnplwgCD7EmZSHxk5DN3ft6n6jE9s8IMLDKlfJRDXEu7DQ8O+AqBwf4BLx5mDXX9wZYt9s2777bv3n+//e0//oN95777LCUNxrozhqJzuYL1iXFf8bKX2c+/6c22atkyb3dGKOlzxz1jLoVX0qOyjioc/eZUMZK20TW/onMnWfjPr/6owXVLsI2QOj127VVXScoOugGPNENtfOueewKnq5JAlFlRqChGg0IBKZmfhEbkRASrthL22BM77Bv33GvHxidclcVlNyXkti8bWeAd26w8rYuLY3IwNly23i65aK01KmXvEqFZjp04bp//ypfsgU2PWrXTtLbYn3266LRwNemEo/xwNfwnSYQ/K4Y4Nj5ln/vyV+17Dz7s9ht50bkOk1y+cYPXk4CZku/L2ZVXXy4zpUd2dy2APpWx7933kH3+n75uh45MqO6sTmBARAVQlow8das9FwA63n8k/eaOLI9x6lFWSUclwew41o75yJqKzsSelmxNIUbpkkbLxibG7WOfvsO+8u3vWFn1qwjQdaWFoAUI0CCRSdsll11iy1ct954BQAagxyem7KMfv8M+8ok77aFNO2RSyOzo9krgpA0P9Nm73vYW+8U3v9lWLhz1EbGEGjDMk+j2rqTZAl+/iU5fz1ipcxqOQUOHehJ9jkB4IoTTaPSUMA/P3cPc8fSQeP8fMluLsfzQbZSXI7J//wHbt++AflNISNyRDbrbaiIm/XtMCAkziYLop7DMID/J/WbFWsvuf3SLferOz9lWmRXcw2ajazkjat8urn7Fbbd570Owd80KPVnZq1V77LFN+tktkwg7Wy7aITlNKV/ot1AmhdSZ8sQh8u6WLsFYHiJF647K4ePj9tkvfcm+KEabkYnj81pVP9Tlaqn/n3/jG2zRgmFl3FZbqJEF87TsNhYXHj5yxOsR4xtd8qi371DdVZ/BwVEbGRlQDiqsKulEhQ76h40PyKEZjl9ZTIfkhKZIQd8KX6+1WmHocvO2Hfbwlm2SsAyaqhSSau/8xbe5tNy3d7dfcxCobsy82n3gkLWTaf9QdAYiCrQIDNqGWhf6ekWnsmuyYL+jAWK6VrOJ6ZLqz2oROu8bbpsulUZ577veZbfedJP1MnFHZQz2fMcnujO1sEcmIt8nY+jaR8solcoDt5Av00/BwbclkHbv2dPtHcDEKNiLb7zBFo6OOnlOR2zkXM/F08IZLs0F370Qe8qJq8bMF5jrmbGdu3a5x5qRM0QHM19gYURj2/ZtyjDh9qcvl1H0zhRdY9YQJXxCjXHXt77t80p37tjhjcaSmDAFr2NXXLHR3vmOt9vQQO/JhhehINbQ4LAdH5+0zU9ul1pPOcjovmEkao8ct0qlJpWekYM2orx1H87XM+Tt0wfVaA8+9LDd+dnPSTreZ7OzJQcpWoQ5AAWB/vWvebVdd83VvrjOu8BUCJgJh5PyPPnkNp/25xpBThz24m5WnO7bbdOiA1PuegUs1i5J1il/vaZyYLPvEN34xOh3vvc927Fzl9OUsnp/qgAET2PHb9m+yzZv3eFdde6QKP83vOEN9tJbb/Veg127droJBXVEFu8WZF0U0yEvv+RiBzh0BUC0HwBdvGixL6vZf+CAGEOA0ttI7zDvQ7/F4JhKN77oBnvf+37F14RhkrDaVeSxnbt3q92+6cuCvnn3d5xR1lywDp42Pk86F1RcIEj6APZbd3/PDgobMB/TD5msfrMAu3jRqB7kSWII3mtAfZ9jSLz/j/7Ql8g4cXRkqJKPsLFGnkV8JQEE1ci9GXEefaObNv3AOdknPYyd8E9q7pFEvu/7D9pX7/qW3fXtb/vHjA/IK6U7hdlTVDetxh+UGvr//qvftdVSX15uNZTvhu1UaPv3s4YXLvEFdNOym2nwsG4oYSdOTChfOVCK23fsUuMcdNtuTADfsnW7CHe3fVH26te/8Q1fZZtOZx14SGD/RJHodsuLb/YJJYP98saR0CIwDhagwXbHth0fH/e1TJhDmAsM1CbkdB4bHxMzbrWtO5T/nl2268A+O3T4qO0/eMQ98i98URL9y1/x1b10xlNO1rtdvP4S1atXeUAFHKuWr+natHmrpBod7XQt1VS2F9vFF6yydesusFq14s4izALIcHQp4w82Pe7fFWMlMG1Gf7UzliQ7I3mLFi/xFaoM1+ZzeZfsTA73UUKBh5GshQsXW07P7ty1x7Y8sc2XBH1XzP3lr33Nj0jLfYcOeR2WLV8R2gphT3O51KfZRBeEjNr22wLs3n37REtpN2mPnGjFhPHFixb4O/NDBNbnCtpYh8+n+Msx2VQCjgBSFdePy0n5xCc/ZV//9j2+pwDLmmdnZ1SYtBMAUY+Dks9nvTEoQFHSh0kQDNVRUrqt6ONDctYF9NUrlvsEipfc9CJX9xj2PrKid1ElEAOurcZT9rhs3w984ANimq1SMQKXGg4bNajY7nCo0qUM9Jui5qp1NYxvFyFnRtJ5amrG+1px2LDLmLX1trf+gi+PychmBiRMNMa0SCD99B5j7EfGxu1v/v7v7d77H/RZTOlcxmbkPPqQrejguw8qJ1R2Pi516lPIUaWzuk4X2aCnDeguvOAC+93f/V1bu2aFM229EaZefvyOO+3vP/5JaQvpd6SQ6vdf/tN/EhAvsEwa5py0D6sMvo9DoeC0pWwwfbxZsd/97f+Pz4by/mvRAvo7c4oWe/butz/6f/6D987UZR8NDA0746DCcXaLxVkvw8KFC3ye8oy0V11lpZ18eqbyoKcIB/ja6661//f9/8ZiIqtPXBdQMeNgZhY38onR//hf/4f7OOzpwLdzly1eaL//u79jG6QJaCbXIAqng/S5gBYaemBlJBNVACK2zNKFI/Z2GeS3v/zl7lmzZooZRHBWWETW50N+lXoz7H4iaTo5M8PLNjQ6Ygtla5ZLs4IAWxIl5ORcar/x679q1159leeBamNihq/JV8F9jFyN5pMrVJ4rLr3A3vee99ilF693MDqSFZC2TPRg/qozSLkqCT9r02KUqp4ripmKMgtoPAYCGmIePvb2yttear/8jnfYiiUj1pYUwJOmsbHLseGJjObQNbRowYj95m/8hr34xTcJ8DmXcoNy0FgIyZRLdkKpKC8AABtNCwCAadDNlKSNnRh3gLBkBhOAcjgmFd080h+aBRo0xMiMLvF7monXrMaQlTLQ22u/8p732qtf+Uorq7547myFibMEDZizelh0994Q5Y0AQItwn01M/vzP/octX7zY+gt5vT9lLT5zr7qWVNZcNmeLpEn48N7eA/vF4rL8JYjSetbHNVUv7+tVgddfBP1FeDEpEjSYd2E0C+3gTChtjNmRl7kF4MEIzAxNI0hG4OT4XIAaBTcJOKGrR2RTZkgt9ilt+dqfSzds9OUaY6pcURIW6YqK55OY3heowlE5QMxYOH2W5XLJSpI2SIMFo8N25eUbfMb8xksvUUXVaMqDRuI8ki5wN+c0OOmVyg1buWKJXSAnYwZwKj2fQaQGwsuHQD77qusYQhnUU1ySk7m79PMO9Q3YUtl1v/CmN9m73/FOG+hjjm0AZV3OnTLWX+i+g3EAMYMO3pGv+twgtTYr25F1+jOqO6tK2ZMgo3rS4c9UyVpJ9PA+0qby1H3RkUZjhhpziW99yS1us4eZY3TCy8ETk7NHww+2bPYP1GHXZ1Sml97yEl+gh10bJF3SNwSha5E1YsF0qHv5C1L3rHFjASjaifSpG5PCmdXPUp6X3vpSm2L7qKlJF0IMO2NnVtQ+CAH2AfCNpHWPHol6oxYkqCjD6NmGSy9zuvUWpFXUPODMscZ/ygwGhOZ33/M9mYR7Haj4KQXR7uYbrpcEl9OltiScDtTnClpf0+XeuIhAI2fFJWTsN4UoQHHZpRfZJeI0VDj2HlIQdeerNlVZ/fOC4v2iYkaHh2zl8mV2/bVX2+tf+xpfablwZMSliKt/ARPC+Lnq42PgStd7HnShJW+G+jBUuHzJAjkHV9noyLDnjbRvy9P2pRp6D9B5Syl0pLJwIhj8uEiq+IZrr7Nf/eX32PVysBitYVqkS3alzaQQ8sN0oKGQ9ozVN5U+DwAWejauv+YqW7Nmrc+2Byh0qDck1X29mcqXFrgLcsLazbpLtyGZQcRLLr7Q57O+8hUvc6/Zpbfo6dP9VP9iqWh79+9zMOFAXbr+YnvFy1/mdiiaTo97Y7Mk/ZL1651Z9+n5MNejaVdsvNyuufoaOb/DomPknAVhg9OWEBPRr3ut6n7ZJZc4oIMkxAyjrdhIuuW9FkhDDKLe3rytWbnCVyq89lW3S8u8VxKfiTMUxsnizEHhKB9VoedhcnLGN8Ng9htr2i67dL29+OYb5Cf0+Us/qlSdH2IS+8p2XuimG110SFAwXQcfB2WMPyG78pCOLG1GAoV+R9m0IsqgONP315I6YlcXHAPID5+RtEtSJRjsGnLp5sShmzddZHjVIaiyypyuKnoqnpQjsnvvHt/kAduUFaisKWIXkbwkRk9/j61avlIAWG/LZJrgaGHWUv65QhBgFJevoQxIuRBoEn6FK7QV9ceL3rv3gByprVLFh33YGAcUJqVfMy/QMv+TParWrFrle0UN9CH9ull68lEe5ktRvvv9h2yHHDjmG1979dV25cYNykg5q7CAlbxZshMWT5bsi6xklbStS7q/+vZX2WWXXeIgBWw+m0tE4t0QVI9u5k5yJUYPwpatT4hR9suZLtusJC37KOTEUPRJI1UB6/oLLpJ26rOEV76bBj45yXKBaiiGnDGJqvapO+5wTZSVT3DLS26yjZetd+bw7e+7bz4f4ayAJdCYEIQY3aCQGNxOTHE7hKTR4DS8Uuav+ti7/niHtyKczOHFK3xqtnOBB7jX5Ugf1FAjYCYg8by4ugeI6OvEycMMYSgy19vjKwbwaCVAvc+XZdzuI3m63SOBo24AWW5EgKV+UUnDlcCo8I+y8TQoWrlUs6npKWt2pL6zUsE9qruAR0+Aaw+VmRgyjQ781/0tqVhqiEp6FrWcUv0wkZi/gcnBY9iSANZ3fFFaxXLNJwRh8vSy9ZGeD0uMVD795+pc6cwPDloF6AVdkXTsjTAjW3ZCphaDQGwMwqf6MSUwjfj4s3dj0ci8p3eeClgvoOx4Oa+6VBYTwcD4K30FForqNj6JA/bUMv0oQQLvbMjxUql8FDA0qxfcm5Yjf0EScM+v6FlXLyIeBjrPdunl9/3XWXI7Jaii3hp+DtUUaBVe98wAL4MVYf6nd9YrX0a/9MOHviERMtpTccJzsZsmgVPS8x/8380nuqHoT+uWkg7FQd3wKOc8rmNbmfAN2TmcgAyAoQfdxJkLvEjsHgRYuXuelNNG18TzbluGflOSgkF5NOEbaTBci8MVzdPlebLF76CQziAAbX7QJbIjYkogE6MBB9J358ofJAlVUGmFuax6EYJSMdqdNvWnVHFo6TEAtqUjVonLFk9HZdXv0ITU5bQy/QjBd37pnp+URB74QaG6BfTrAaz8oH+Sy1Q+qkAXU6GgqghtSghvKERZcYgASeiedu+6hDw1cEcM4eUI0pbz0KCM8+gymUM4ldHNDd0jWbed5hLuHk8Put5lye4jUeMohKw9+rxYb8DuNY7+Lj/D+1G+cwCeC7oPgbuPMYhQU0RtBocz2NdzNFLwOurINM2aHDEGAbjtSesGj5OPv6L35+xEP4TzKDU/epsx4KD6eft0xADhM/w+uKL7eP68S68EvQRs0QTNfVTL7yhjLy8xiKGmjhLKDli/ogZst5SuzhPJrN56CjGec4i1RJVuNc8CWMQKIRSXAlIBv6v/nEYcu0944DWATmN0L3ngJT9GLyrowOUochVpc8rFQMO5B+hEp4cCBwugOlj0D4fGO1poybnQfdHT0TnH+YHfusyoFSF6Mzr6faQ85dXB0+C0yerebq+Cd3ecDEh/rgSJF66FhE5mDqwFne5tST3RxBlNWsNBJECxnxZZYhpQs2haJwvxAFgSJy5KX/R27YaE5aLXq9tORP1H/7EPzbqk7U4cF80cirwT1ZM0eKEbyNM/x6/z0wFL4wBmRvkY4g47QqruAq0zYux5NgkArJ/4zxBOnosIAoYvKBQLEXlYZXNuQhWx577aLGgO6stroWaKnnS3YmcIuswT8yOBj7ahfmksgtNwLs2Tz/ITsHoDiDl8ETbVgfCKbC8JwCIHrts04eX5RwJtpIPfPz3AfCpASDpIWVKiWjzfzc4D5XScPqWNTmbGO9iOrFpllj+ByTEO2khkkqfOGXn0Dn+Gqbul439PnvII4Ayq4Nz6u/4I/4VnydUjSYqigNbv6DfdZ2EQpqu/u7SjjjjSbJXk1/WP6vHeKYD1i5KjihWZKplsWCHL5B0GZug5cgnrvRjPTzhFwkbh5G8VyqP+V+Eie4cIaLt1OfmYIo01l8A8FRhC90Z0X2Heqx65hYSd94iHQHCF7g3nev2FzukgSehYdw/JC9aNes4dNUDWRZEn4Yl1j1zwi2cOAMK99m5aNHL0Oie67b/hi26WHqMinCnwPBGThhMml3gt9CK7s9DFxrAr8Arbm8q2lWTwdHkM80Rp00MRzB6ER2CmkGnImDyiY+jNkfARHcJEFT1DQ/oDJKrYfd/9Ef0F/0ClcDqTavc5j7yIYwi4k36EITBzOpgEnhZgDXR/PsLTOF3zA48EApyrML8QP1pOz19K5zpEJT21lGcv/5mf/0kFSvN0JTkXpTX7/wMGDD+LGHRtVwAAAABJRU5ErkJggg==;" vertex="1" parent="1">
          <mxGeometry x="710" y="160.75" width="85.18" height="77.75" as="geometry" />
        </mxCell>
        <mxCell id="ug6Eu8pwcORwcSIKxxkM-3" value="" style="endArrow=classic;html=1;rounded=0;exitX=0.944;exitY=0.611;exitDx=0;exitDy=0;exitPerimeter=0;" edge="1" parent="1">
          <mxGeometry width="50" height="50" relative="1" as="geometry">
            <mxPoint x="320" y="199.13" as="sourcePoint" />
            <mxPoint x="450" y="199" as="targetPoint" />
          </mxGeometry>
        </mxCell>
        <mxCell id="ug6Eu8pwcORwcSIKxxkM-4" value="" style="endArrow=classic;html=1;rounded=0;exitX=0.944;exitY=0.611;exitDx=0;exitDy=0;exitPerimeter=0;entryX=0;entryY=0.5;entryDx=0;entryDy=0;" edge="1" parent="1" target="ug6Eu8pwcORwcSIKxxkM-2">
          <mxGeometry width="50" height="50" relative="1" as="geometry">
            <mxPoint x="539.54" y="199.26" as="sourcePoint" />
            <mxPoint x="669.54" y="199.13" as="targetPoint" />
          </mxGeometry>
        </mxCell>
        <mxCell id="ug6Eu8pwcORwcSIKxxkM-5" value="Developer" style="text;html=1;align=center;verticalAlign=middle;whiteSpace=wrap;rounded=0;" vertex="1" parent="1">
          <mxGeometry x="35" y="150" width="60" height="30" as="geometry" />
        </mxCell>
        <mxCell id="ug6Eu8pwcORwcSIKxxkM-6" value="Push code" style="text;html=1;align=center;verticalAlign=middle;resizable=0;points=[];autosize=1;strokeColor=none;fillColor=none;" vertex="1" parent="1">
          <mxGeometry x="130" y="199.25" width="80" height="30" as="geometry" />
        </mxCell>
        <mxCell id="ug6Eu8pwcORwcSIKxxkM-7" value="Github" style="text;html=1;align=center;verticalAlign=middle;resizable=0;points=[];autosize=1;strokeColor=none;fillColor=none;" vertex="1" parent="1">
          <mxGeometry x="265" y="130.75" width="60" height="30" as="geometry" />
        </mxCell>
        <mxCell id="ug6Eu8pwcORwcSIKxxkM-8" value="trigger build" style="text;html=1;align=center;verticalAlign=middle;resizable=0;points=[];autosize=1;strokeColor=none;fillColor=none;" vertex="1" parent="1">
          <mxGeometry x="325" y="199.25" width="90" height="30" as="geometry" />
        </mxCell>
        <mxCell id="ug6Eu8pwcORwcSIKxxkM-9" value="send image to docker hub" style="text;html=1;align=center;verticalAlign=middle;resizable=0;points=[];autosize=1;strokeColor=none;fillColor=none;" vertex="1" parent="1">
          <mxGeometry x="540" y="199.25" width="160" height="30" as="geometry" />
        </mxCell>
        <mxCell id="ug6Eu8pwcORwcSIKxxkM-10" value="" style="endArrow=classic;html=1;rounded=0;exitX=0.25;exitY=0;exitDx=0;exitDy=0;entryX=0.313;entryY=1;entryDx=0;entryDy=0;entryPerimeter=0;" edge="1" parent="1" source="u6Jp9F05Q7l3eam3TTiX-4" target="ug6Eu8pwcORwcSIKxxkM-11">
          <mxGeometry width="50" height="50" relative="1" as="geometry">
            <mxPoint x="490" y="160" as="sourcePoint" />
            <mxPoint x="472" y="80" as="targetPoint" />
          </mxGeometry>
        </mxCell>
        <mxCell id="ug6Eu8pwcORwcSIKxxkM-11" value="build image with docker file" style="rounded=0;whiteSpace=wrap;html=1;" vertex="1" parent="1">
          <mxGeometry x="434.77" y="30" width="120" height="60" as="geometry" />
        </mxCell>
        <mxCell id="ug6Eu8pwcORwcSIKxxkM-13" value="" style="endArrow=classic;html=1;rounded=0;exitX=0.624;exitY=1.028;exitDx=0;exitDy=0;exitPerimeter=0;" edge="1" parent="1" source="ug6Eu8pwcORwcSIKxxkM-11">
          <mxGeometry width="50" height="50" relative="1" as="geometry">
            <mxPoint x="482" y="171" as="sourcePoint" />
            <mxPoint x="510" y="160" as="targetPoint" />
          </mxGeometry>
        </mxCell>
        <mxCell id="ug6Eu8pwcORwcSIKxxkM-14" value="image" style="text;html=1;align=center;verticalAlign=middle;resizable=0;points=[];autosize=1;strokeColor=none;fillColor=none;" vertex="1" parent="1">
          <mxGeometry x="500" y="108" width="60" height="30" as="geometry" />
        </mxCell>
        <mxCell id="ug6Eu8pwcORwcSIKxxkM-15" value="" style="endArrow=classic;html=1;rounded=0;exitX=0.5;exitY=1;exitDx=0;exitDy=0;" edge="1" parent="1" source="ug6Eu8pwcORwcSIKxxkM-2">
          <mxGeometry width="50" height="50" relative="1" as="geometry">
            <mxPoint x="700" y="290.13" as="sourcePoint" />
            <mxPoint x="753" y="320" as="targetPoint" />
          </mxGeometry>
        </mxCell>
        <mxCell id="ug6Eu8pwcORwcSIKxxkM-16" value="Cloud" style="html=1;whiteSpace=wrap;strokeColor=none;fillColor=#0079D6;labelPosition=center;verticalLabelPosition=middle;verticalAlign=top;align=center;fontSize=12;outlineConnect=0;spacingTop=-6;fontColor=#FFFFFF;sketch=0;shape=mxgraph.sitemap.cloud;" vertex="1" parent="1">
          <mxGeometry x="693" y="320" width="120" height="70" as="geometry" />
        </mxCell>
        <mxCell id="ug6Eu8pwcORwcSIKxxkM-17" value="AWS" style="text;html=1;align=center;verticalAlign=middle;resizable=0;points=[];autosize=1;strokeColor=none;fillColor=none;" vertex="1" parent="1">
          <mxGeometry x="725" y="398" width="50" height="30" as="geometry" />
        </mxCell>
        <mxCell id="ug6Eu8pwcORwcSIKxxkM-18" value="deploy" style="text;html=1;align=center;verticalAlign=middle;resizable=0;points=[];autosize=1;strokeColor=none;fillColor=none;" vertex="1" parent="1">
          <mxGeometry x="750" y="258" width="60" height="30" as="geometry" />
        </mxCell>
      </root>
    </mxGraphModel>
  </diagram>
</mxfile>
